solid OpenSCAD_Model
  facet normal -1 0 0
    outer loop
      vertex -21.4442 -0.499119 4
      vertex -21.4442 0.499119 0
      vertex -21.4442 -0.499119 0
    endloop
  endfacet
  facet normal -1 0 0
    outer loop
      vertex -21.4442 -0.499119 4
      vertex -21.4442 0.499119 4
      vertex -21.4442 0.499119 0
    endloop
  endfacet
  facet normal 0.196517 -0.9805 0
    outer loop
      vertex 4.70353 -20.928 0
      vertex 3.72475 -21.1241 4
      vertex 3.72475 -21.1241 0
    endloop
  endfacet
  facet normal 0.196517 -0.9805 0
    outer loop
      vertex 4.70353 -20.928 0
      vertex 4.70353 -20.928 4
      vertex 3.72475 -21.1241 4
    endloop
  endfacet
  facet normal 0.71934 -0.694658 0
    outer loop
      vertex 15.7724 -14.5374 0
      vertex 15.0789 -15.2554 4
      vertex 15.0789 -15.2554 0
    endloop
  endfacet
  facet normal 0.71934 -0.694658 0
    outer loop
      vertex 15.7724 -14.5374 0
      vertex 15.7724 -14.5374 4
      vertex 15.0789 -15.2554 4
    endloop
  endfacet
  facet normal 0 0 -1
    outer loop
      vertex 0 0 0
      vertex -21.3977 -1.49628 0
      vertex -21.4442 -0.499119 0
    endloop
  endfacet
  facet normal 0 0 -1
    outer loop
      vertex -21.4442 0.499119 0
      vertex 0 0 0
      vertex -21.4442 -0.499119 0
    endloop
  endfacet
  facet normal 0 -0 -1
    outer loop
      vertex -21.3977 1.49628 0
      vertex 0 0 0
      vertex -21.4442 0.499119 0
    endloop
  endfacet
  facet normal 0 -0 -1
    outer loop
      vertex -21.305 2.49019 0
      vertex 0 0 0
      vertex -21.3977 1.49628 0
    endloop
  endfacet
  facet normal 0 -0 -1
    outer loop
      vertex -21.166 3.47872 0
      vertex 0 0 0
      vertex -21.305 2.49019 0
    endloop
  endfacet
  facet normal 0 -0 -1
    outer loop
      vertex -20.9813 4.45971 0
      vertex 0 0 0
      vertex -21.166 3.47872 0
    endloop
  endfacet
  facet normal 0 -0 -1
    outer loop
      vertex -20.7511 5.43104 0
      vertex 0 0 0
      vertex -20.9813 4.45971 0
    endloop
  endfacet
  facet normal 0 -0 -1
    outer loop
      vertex -20.4759 6.3906 0
      vertex 0 0 0
      vertex -20.7511 5.43104 0
    endloop
  endfacet
  facet normal 0 -0 -1
    outer loop
      vertex -20.1564 7.33633 0
      vertex 0 0 0
      vertex -20.4759 6.3906 0
    endloop
  endfacet
  facet normal 0 -0 -1
    outer loop
      vertex -19.7933 8.26617 0
      vertex 0 0 0
      vertex -20.1564 7.33633 0
    endloop
  endfacet
  facet normal 0 -0 -1
    outer loop
      vertex -19.3872 9.17811 0
      vertex 0 0 0
      vertex -19.7933 8.26617 0
    endloop
  endfacet
  facet normal 0 -0 -1
    outer loop
      vertex -18.9392 10.0702 0
      vertex 0 0 0
      vertex -19.3872 9.17811 0
    endloop
  endfacet
  facet normal 0 -0 -1
    outer loop
      vertex -18.4502 10.9404 0
      vertex 0 9.9 0
      vertex -18.9392 10.0702 0
    endloop
  endfacet
  facet normal 0 -0 -1
    outer loop
      vertex -17.9212 11.787 0
      vertex 0 9.9 0
      vertex -18.4502 10.9404 0
    endloop
  endfacet
  facet normal 0 -0 -1
    outer loop
      vertex -17.3534 12.608 0
      vertex 0 9.9 0
      vertex -17.9212 11.787 0
    endloop
  endfacet
  facet normal 0 -0 -1
    outer loop
      vertex -16.748 13.4017 0
      vertex 0 9.9 0
      vertex -17.3534 12.608 0
    endloop
  endfacet
  facet normal 0 -0 -1
    outer loop
      vertex -16.1064 14.1664 0
      vertex 0 9.9 0
      vertex -16.748 13.4017 0
    endloop
  endfacet
  facet normal 0 -0 -1
    outer loop
      vertex -15.4298 14.9004 0
      vertex 0 9.9 0
      vertex -16.1064 14.1664 0
    endloop
  endfacet
  facet normal 0 -0 -1
    outer loop
      vertex -14.7199 15.6022 0
      vertex 0 9.9 0
      vertex -15.4298 14.9004 0
    endloop
  endfacet
  facet normal 0 -0 -1
    outer loop
      vertex -13.978 16.2701 0
      vertex 0 9.9 0
      vertex -14.7199 15.6022 0
    endloop
  endfacet
  facet normal 0 -0 -1
    outer loop
      vertex -13.2059 16.9028 0
      vertex 0 9.9 0
      vertex -13.978 16.2701 0
    endloop
  endfacet
  facet normal 0 -0 -1
    outer loop
      vertex -12.4052 17.4989 0
      vertex 0 9.9 0
      vertex -13.2059 16.9028 0
    endloop
  endfacet
  facet normal 0 -0 -1
    outer loop
      vertex -11.5777 18.0571 0
      vertex 0 9.9 0
      vertex -12.4052 17.4989 0
    endloop
  endfacet
  facet normal 0 -0 -1
    outer loop
      vertex -10.725 18.5762 0
      vertex 0 9.9 0
      vertex -11.5777 18.0571 0
    endloop
  endfacet
  facet normal 0 -0 -1
    outer loop
      vertex -9.84912 19.0551 0
      vertex 0 9.9 0
      vertex -10.725 18.5762 0
    endloop
  endfacet
  facet normal 0 -0 -1
    outer loop
      vertex -8.95191 19.4927 0
      vertex 0 9.9 0
      vertex -9.84912 19.0551 0
    endloop
  endfacet
  facet normal 0 -0 -1
    outer loop
      vertex -8.03531 19.8881 0
      vertex 0 9.9 0
      vertex -8.95191 19.4927 0
    endloop
  endfacet
  facet normal 0 0 -1
    outer loop
      vertex 9.9 9.9 0
      vertex 19.9802 7.80336 0
      vertex 20.3217 6.86533 0
    endloop
  endfacet
  facet normal 0 -0 -1
    outer loop
      vertex -6.15193 20.5489 0
      vertex 0 9.9 0
      vertex -7.10131 20.2404 0
    endloop
  endfacet
  facet normal 0 -0 -1
    outer loop
      vertex -5.18922 20.8128 0
      vertex 0 9.9 0
      vertex -6.15193 20.5489 0
    endloop
  endfacet
  facet normal 0 -0 -1
    outer loop
      vertex -4.21528 21.0317 0
      vertex 0 9.9 0
      vertex -5.18922 20.8128 0
    endloop
  endfacet
  facet normal 0 -0 -1
    outer loop
      vertex -3.23221 21.2051 0
      vertex 0 9.9 0
      vertex -4.21528 21.0317 0
    endloop
  endfacet
  facet normal 0 -0 -1
    outer loop
      vertex -2.24214 21.3325 0
      vertex 0 9.9 0
      vertex -3.23221 21.2051 0
    endloop
  endfacet
  facet normal 0 -0 -1
    outer loop
      vertex -1.24721 21.4137 0
      vertex 0 9.9 0
      vertex -2.24214 21.3325 0
    endloop
  endfacet
  facet normal 0 -0 -1
    outer loop
      vertex -0.249576 21.4485 0
      vertex 0 9.9 0
      vertex -1.24721 21.4137 0
    endloop
  endfacet
  facet normal -0 0 -1
    outer loop
      vertex 0.748594 21.4369 0
      vertex 0 9.9 0
      vertex -0.249576 21.4485 0
    endloop
  endfacet
  facet normal -0 0 -1
    outer loop
      vertex 1.74514 21.3789 0
      vertex 0 9.9 0
      vertex 0.748594 21.4369 0
    endloop
  endfacet
  facet normal -0 0 -1
    outer loop
      vertex 2.73791 21.2745 0
      vertex 0 9.9 0
      vertex 1.74514 21.3789 0
    endloop
  endfacet
  facet normal -0 0 -1
    outer loop
      vertex 3.72475 21.1241 0
      vertex 0 9.9 0
      vertex 2.73791 21.2745 0
    endloop
  endfacet
  facet normal -0 0 -1
    outer loop
      vertex 4.70353 20.928 0
      vertex 0 9.9 0
      vertex 3.72475 21.1241 0
    endloop
  endfacet
  facet normal -0 0 -1
    outer loop
      vertex 5.67211 20.6865 0
      vertex 0 9.9 0
      vertex 4.70353 20.928 0
    endloop
  endfacet
  facet normal -0 0 -1
    outer loop
      vertex 6.62841 20.4002 0
      vertex 0 9.9 0
      vertex 5.67211 20.6865 0
    endloop
  endfacet
  facet normal 0 0 -1
    outer loop
      vertex 9.9 9.9 0
      vertex 0 9.9 0
      vertex 6.62841 20.4002 0
    endloop
  endfacet
  facet normal 0 0 -1
    outer loop
      vertex 9.9 9.9 0
      vertex 6.62841 20.4002 0
      vertex 7.57036 20.0697 0
    endloop
  endfacet
  facet normal 0 0 -1
    outer loop
      vertex 9.9 9.9 0
      vertex 7.57036 20.0697 0
      vertex 8.49591 19.6957 0
    endloop
  endfacet
  facet normal 0 0 -1
    outer loop
      vertex 9.9 9.9 0
      vertex 8.49591 19.6957 0
      vertex 9.40306 19.2791 0
    endloop
  endfacet
  facet normal 0 0 -1
    outer loop
      vertex 9.9 9.9 0
      vertex 9.40306 19.2791 0
      vertex 10.2898 18.8208 0
    endloop
  endfacet
  facet normal 0 0 -1
    outer loop
      vertex 9.9 9.9 0
      vertex 10.2898 18.8208 0
      vertex 11.1543 18.3217 0
    endloop
  endfacet
  facet normal 0 0 -1
    outer loop
      vertex 9.9 9.9 0
      vertex 11.1543 18.3217 0
      vertex 11.9947 17.7829 0
    endloop
  endfacet
  facet normal 0 0 -1
    outer loop
      vertex 9.9 9.9 0
      vertex 11.9947 17.7829 0
      vertex 12.8091 17.2055 0
    endloop
  endfacet
  facet normal 0 0 -1
    outer loop
      vertex 9.9 9.9 0
      vertex 12.8091 17.2055 0
      vertex 13.5957 16.591 0
    endloop
  endfacet
  facet normal 0 0 -1
    outer loop
      vertex 9.9 9.9 0
      vertex 13.5957 16.591 0
      vertex 14.3529 15.9405 0
    endloop
  endfacet
  facet normal 0 0 -1
    outer loop
      vertex 9.9 9.9 0
      vertex 15.0789 15.2554 0
      vertex 15.7724 14.5374 0
    endloop
  endfacet
  facet normal 0 0 -1
    outer loop
      vertex 9.9 9.9 0
      vertex 15.7724 14.5374 0
      vertex 16.4317 13.7878 0
    endloop
  endfacet
  facet normal 0 0 -1
    outer loop
      vertex 9.9 9.9 0
      vertex 16.4317 13.7878 0
      vertex 17.0553 13.0084 0
    endloop
  endfacet
  facet normal 0 0 -1
    outer loop
      vertex 9.9 9.9 0
      vertex 17.0553 13.0084 0
      vertex 17.6421 12.2008 0
    endloop
  endfacet
  facet normal 0 0 -1
    outer loop
      vertex 9.9 9.9 0
      vertex 17.6421 12.2008 0
      vertex 18.1906 11.3668 0
    endloop
  endfacet
  facet normal 0 0 -1
    outer loop
      vertex 9.9 9.9 0
      vertex 18.1906 11.3668 0
      vertex 18.6998 10.5081 0
    endloop
  endfacet
  facet normal 0 -0 -1
    outer loop
      vertex 18.6998 10.5081 0
      vertex 19.1684 9.62674 0
      vertex 9.9 9.9 0
    endloop
  endfacet
  facet normal -0 -0 -1
    outer loop
      vertex 19.1684 9.62674 0
      vertex 19.5956 8.7245 0
      vertex 9.9 9.9 0
    endloop
  endfacet
  facet normal -0 -0 -1
    outer loop
      vertex 19.5956 8.7245 0
      vertex 19.9802 7.80336 0
      vertex 9.9 9.9 0
    endloop
  endfacet
  facet normal 0 0 -1
    outer loop
      vertex 18.6998 -10.5081 0
      vertex 9.9 0 0
      vertex 19.1684 -9.62674 0
    endloop
  endfacet
  facet normal 0 -0 -1
    outer loop
      vertex 20.3217 6.86533 0
      vertex 20.6191 5.91242 0
      vertex 9.9 0 0
    endloop
  endfacet
  facet normal 0 -0 -1
    outer loop
      vertex 20.6191 5.91242 0
      vertex 20.8718 4.94671 0
      vertex 9.9 0 0
    endloop
  endfacet
  facet normal 0 -0 -1
    outer loop
      vertex 20.8718 4.94671 0
      vertex 21.0794 3.97029 0
      vertex 9.9 0 0
    endloop
  endfacet
  facet normal 0 -0 -1
    outer loop
      vertex 21.0794 3.97029 0
      vertex 21.2413 2.98526 0
      vertex 9.9 0 0
    endloop
  endfacet
  facet normal 0 -0 -1
    outer loop
      vertex 21.2413 2.98526 0
      vertex 21.3571 1.99377 0
      vertex 9.9 0 0
    endloop
  endfacet
  facet normal 0 -0 -1
    outer loop
      vertex 21.3571 1.99377 0
      vertex 21.4268 0.997968 0
      vertex 9.9 0 0
    endloop
  endfacet
  facet normal 0 -0 -1
    outer loop
      vertex 21.4268 0.997968 0
      vertex 21.45 0 0
      vertex 9.9 0 0
    endloop
  endfacet
  facet normal 0 0 -1
    outer loop
      vertex 9.9 0 0
      vertex 21.4268 -0.997968 0
      vertex 21.3571 -1.99377 0
    endloop
  endfacet
  facet normal 0 0 -1
    outer loop
      vertex 9.9 0 0
      vertex 21.3571 -1.99377 0
      vertex 21.2413 -2.98526 0
    endloop
  endfacet
  facet normal 0 0 -1
    outer loop
      vertex 9.9 0 0
      vertex 21.2413 -2.98526 0
      vertex 21.0794 -3.97029 0
    endloop
  endfacet
  facet normal 0 0 -1
    outer loop
      vertex 9.9 0 0
      vertex 21.0794 -3.97029 0
      vertex 20.8718 -4.94671 0
    endloop
  endfacet
  facet normal 0 0 -1
    outer loop
      vertex 9.9 0 0
      vertex 20.8718 -4.94671 0
      vertex 20.6191 -5.91242 0
    endloop
  endfacet
  facet normal 0 0 -1
    outer loop
      vertex 9.9 0 0
      vertex 20.6191 -5.91242 0
      vertex 20.3217 -6.86533 0
    endloop
  endfacet
  facet normal 0 0 -1
    outer loop
      vertex 9.9 0 0
      vertex 20.3217 -6.86533 0
      vertex 19.9802 -7.80336 0
    endloop
  endfacet
  facet normal 0 0 -1
    outer loop
      vertex 9.9 0 0
      vertex 19.9802 -7.80336 0
      vertex 19.5956 -8.7245 0
    endloop
  endfacet
  facet normal 0 0 -1
    outer loop
      vertex 9.9 0 0
      vertex 19.5956 -8.7245 0
      vertex 19.1684 -9.62674 0
    endloop
  endfacet
  facet normal 0 0 -1
    outer loop
      vertex -11.5777 -18.0571 0
      vertex -12.4052 -17.4989 0
      vertex 0 0 0
    endloop
  endfacet
  facet normal 0 0 -1
    outer loop
      vertex 9.9 0 0
      vertex 18.6998 -10.5081 0
      vertex 18.1906 -11.3668 0
    endloop
  endfacet
  facet normal 0 0 -1
    outer loop
      vertex 9.9 0 0
      vertex 18.1906 -11.3668 0
      vertex 17.6421 -12.2008 0
    endloop
  endfacet
  facet normal 0 0 -1
    outer loop
      vertex 9.9 0 0
      vertex 17.6421 -12.2008 0
      vertex 17.0553 -13.0084 0
    endloop
  endfacet
  facet normal 0 0 -1
    outer loop
      vertex 9.9 0 0
      vertex 17.0553 -13.0084 0
      vertex 16.4317 -13.7878 0
    endloop
  endfacet
  facet normal 0 0 -1
    outer loop
      vertex 9.9 0 0
      vertex 16.4317 -13.7878 0
      vertex 15.7724 -14.5374 0
    endloop
  endfacet
  facet normal 0 0 -1
    outer loop
      vertex 9.9 0 0
      vertex 15.7724 -14.5374 0
      vertex 15.0789 -15.2554 0
    endloop
  endfacet
  facet normal 0 0 -1
    outer loop
      vertex 9.9 0 0
      vertex 15.0789 -15.2554 0
      vertex 14.3529 -15.9405 0
    endloop
  endfacet
  facet normal 0 0 -1
    outer loop
      vertex 9.9 0 0
      vertex 14.3529 -15.9405 0
      vertex 13.5957 -16.591 0
    endloop
  endfacet
  facet normal 0 0 -1
    outer loop
      vertex 9.9 0 0
      vertex 13.5957 -16.591 0
      vertex 12.8091 -17.2055 0
    endloop
  endfacet
  facet normal 0 0 -1
    outer loop
      vertex 9.9 0 0
      vertex 12.8091 -17.2055 0
      vertex 11.9947 -17.7829 0
    endloop
  endfacet
  facet normal 0 0 -1
    outer loop
      vertex 9.9 0 0
      vertex 11.9947 -17.7829 0
      vertex 11.1543 -18.3217 0
    endloop
  endfacet
  facet normal 0 0 -1
    outer loop
      vertex 9.9 0 0
      vertex 11.1543 -18.3217 0
      vertex 10.2898 -18.8208 0
    endloop
  endfacet
  facet normal 0 0 -1
    outer loop
      vertex 0 0 0
      vertex 10.2898 -18.8208 0
      vertex 9.40306 -19.2791 0
    endloop
  endfacet
  facet normal 0 0 -1
    outer loop
      vertex 0 0 0
      vertex 9.40306 -19.2791 0
      vertex 8.49591 -19.6957 0
    endloop
  endfacet
  facet normal 0 0 -1
    outer loop
      vertex 0 0 0
      vertex 8.49591 -19.6957 0
      vertex 7.57036 -20.0697 0
    endloop
  endfacet
  facet normal 0 0 -1
    outer loop
      vertex 0 0 0
      vertex 7.57036 -20.0697 0
      vertex 6.62841 -20.4002 0
    endloop
  endfacet
  facet normal 0 0 -1
    outer loop
      vertex 0 0 0
      vertex 6.62841 -20.4002 0
      vertex 5.67211 -20.6865 0
    endloop
  endfacet
  facet normal 0 0 -1
    outer loop
      vertex 0 0 0
      vertex 5.67211 -20.6865 0
      vertex 4.70353 -20.928 0
    endloop
  endfacet
  facet normal 0 0 -1
    outer loop
      vertex 0 0 0
      vertex 4.70353 -20.928 0
      vertex 3.72475 -21.1241 0
    endloop
  endfacet
  facet normal 0 0 -1
    outer loop
      vertex 0 0 0
      vertex 3.72475 -21.1241 0
      vertex 2.73791 -21.2745 0
    endloop
  endfacet
  facet normal 0 0 -1
    outer loop
      vertex 0 0 0
      vertex 2.73791 -21.2745 0
      vertex 1.74514 -21.3789 0
    endloop
  endfacet
  facet normal 0 0 -1
    outer loop
      vertex -18.9392 10.0702 0
      vertex 0 9.9 0
      vertex 0 0 0
    endloop
  endfacet
  facet normal 0 0 -1
    outer loop
      vertex -1.24721 -21.4137 0
      vertex 0 0 0
      vertex -0.249576 -21.4485 0
    endloop
  endfacet
  facet normal 0 0 -1
    outer loop
      vertex -2.24214 -21.3325 0
      vertex 0 0 0
      vertex -1.24721 -21.4137 0
    endloop
  endfacet
  facet normal 0 0 -1
    outer loop
      vertex -3.23221 -21.2051 0
      vertex 0 0 0
      vertex -2.24214 -21.3325 0
    endloop
  endfacet
  facet normal 0 0 -1
    outer loop
      vertex -4.21528 -21.0317 0
      vertex 0 0 0
      vertex -3.23221 -21.2051 0
    endloop
  endfacet
  facet normal 0 0 -1
    outer loop
      vertex -5.18922 -20.8128 0
      vertex 0 0 0
      vertex -4.21528 -21.0317 0
    endloop
  endfacet
  facet normal 0 0 -1
    outer loop
      vertex -6.15193 -20.5489 0
      vertex 0 0 0
      vertex -5.18922 -20.8128 0
    endloop
  endfacet
  facet normal 0 0 -1
    outer loop
      vertex -7.10131 -20.2404 0
      vertex 0 0 0
      vertex -6.15193 -20.5489 0
    endloop
  endfacet
  facet normal 0 0 -1
    outer loop
      vertex -8.03531 -19.8881 0
      vertex 0 0 0
      vertex -7.10131 -20.2404 0
    endloop
  endfacet
  facet normal 0 0 -1
    outer loop
      vertex -8.95191 -19.4927 0
      vertex 0 0 0
      vertex -8.03531 -19.8881 0
    endloop
  endfacet
  facet normal 0 0 -1
    outer loop
      vertex -9.84912 -19.0551 0
      vertex 0 0 0
      vertex -8.95191 -19.4927 0
    endloop
  endfacet
  facet normal 0 0 -1
    outer loop
      vertex -10.725 -18.5762 0
      vertex 0 0 0
      vertex -9.84912 -19.0551 0
    endloop
  endfacet
  facet normal 0 0 -1
    outer loop
      vertex -11.5777 -18.0571 0
      vertex 0 0 0
      vertex -10.725 -18.5762 0
    endloop
  endfacet
  facet normal 0 0 -1
    outer loop
      vertex -19.3872 -9.17811 0
      vertex -19.7933 -8.26617 0
      vertex 0 0 0
    endloop
  endfacet
  facet normal 0 0 -1
    outer loop
      vertex -13.2059 -16.9028 0
      vertex 0 0 0
      vertex -12.4052 -17.4989 0
    endloop
  endfacet
  facet normal 0 0 -1
    outer loop
      vertex -13.978 -16.2701 0
      vertex 0 0 0
      vertex -13.2059 -16.9028 0
    endloop
  endfacet
  facet normal 0 0 -1
    outer loop
      vertex -14.7199 -15.6022 0
      vertex 0 0 0
      vertex -13.978 -16.2701 0
    endloop
  endfacet
  facet normal 0 0 -1
    outer loop
      vertex -15.4298 -14.9004 0
      vertex 0 0 0
      vertex -14.7199 -15.6022 0
    endloop
  endfacet
  facet normal 0 0 -1
    outer loop
      vertex -16.1064 -14.1664 0
      vertex 0 0 0
      vertex -15.4298 -14.9004 0
    endloop
  endfacet
  facet normal 0 0 -1
    outer loop
      vertex -16.748 -13.4017 0
      vertex 0 0 0
      vertex -16.1064 -14.1664 0
    endloop
  endfacet
  facet normal 0 0 -1
    outer loop
      vertex -17.3534 -12.608 0
      vertex 0 0 0
      vertex -16.748 -13.4017 0
    endloop
  endfacet
  facet normal 0 0 -1
    outer loop
      vertex -17.9212 -11.787 0
      vertex 0 0 0
      vertex -17.3534 -12.608 0
    endloop
  endfacet
  facet normal 0 0 -1
    outer loop
      vertex -18.4502 -10.9404 0
      vertex 0 0 0
      vertex -17.9212 -11.787 0
    endloop
  endfacet
  facet normal 0 0 -1
    outer loop
      vertex -18.9392 -10.0702 0
      vertex 0 0 0
      vertex -18.4502 -10.9404 0
    endloop
  endfacet
  facet normal 0 0 -1
    outer loop
      vertex -19.3872 -9.17811 0
      vertex 0 0 0
      vertex -18.9392 -10.0702 0
    endloop
  endfacet
  facet normal 0 0 -1
    outer loop
      vertex -20.1564 -7.33633 0
      vertex -20.4759 -6.3906 0
      vertex 0 0 0
    endloop
  endfacet
  facet normal 0 0 -1
    outer loop
      vertex -20.1564 -7.33633 0
      vertex 0 0 0
      vertex -19.7933 -8.26617 0
    endloop
  endfacet
  facet normal 0 0 -1
    outer loop
      vertex -20.7511 -5.43104 0
      vertex -20.9813 -4.45971 0
      vertex 0 0 0
    endloop
  endfacet
  facet normal 0 0 -1
    outer loop
      vertex -20.7511 -5.43104 0
      vertex 0 0 0
      vertex -20.4759 -6.3906 0
    endloop
  endfacet
  facet normal 0 0 -1
    outer loop
      vertex -20.9813 -4.45971 0
      vertex -21.166 -3.47872 0
      vertex 0 0 0
    endloop
  endfacet
  facet normal 0 0 -1
    outer loop
      vertex -21.166 -3.47872 0
      vertex -21.305 -2.49019 0
      vertex 0 0 0
    endloop
  endfacet
  facet normal 0 -0 -1
    outer loop
      vertex -7.10131 20.2404 0
      vertex 0 9.9 0
      vertex -8.03531 19.8881 0
    endloop
  endfacet
  facet normal 0 0 -1
    outer loop
      vertex 0 0 0
      vertex -21.305 -2.49019 0
      vertex -21.3977 -1.49628 0
    endloop
  endfacet
  facet normal 0 0 -1
    outer loop
      vertex -0.249576 -21.4485 0
      vertex 0 0 0
      vertex 0.748594 -21.4369 0
    endloop
  endfacet
  facet normal 0 0 -1
    outer loop
      vertex 0 0 0
      vertex 1.74514 -21.3789 0
      vertex 0.748594 -21.4369 0
    endloop
  endfacet
  facet normal 0 0 -1
    outer loop
      vertex 0 0 0
      vertex 9.9 0 0
      vertex 10.2898 -18.8208 0
    endloop
  endfacet
  facet normal 0 0 -1
    outer loop
      vertex 9.9 0 0
      vertex 21.45 0 0
      vertex 21.4268 -0.997968 0
    endloop
  endfacet
  facet normal 0 0 -1
    outer loop
      vertex 9.9 0 0
      vertex 9.9 9.9 0
      vertex 20.3217 6.86533 0
    endloop
  endfacet
  facet normal 0 0 -1
    outer loop
      vertex 9.9 9.9 0
      vertex 14.3529 15.9405 0
      vertex 15.0789 15.2554 0
    endloop
  endfacet
  facet normal -0.352931 -0.93565 0
    outer loop
      vertex -7.10131 -20.2404 0
      vertex -8.03531 -19.8881 4
      vertex -8.03531 -19.8881 0
    endloop
  endfacet
  facet normal -0.352931 -0.93565 0
    outer loop
      vertex -7.10131 -20.2404 0
      vertex -7.10131 -20.2404 4
      vertex -8.03531 -19.8881 4
    endloop
  endfacet
  facet normal -0.39608 0.918216 0
    outer loop
      vertex -8.95191 19.4927 4
      vertex -8.03531 19.8881 0
      vertex -8.95191 19.4927 0
    endloop
  endfacet
  facet normal -0.39608 0.918216 0
    outer loop
      vertex -8.95191 19.4927 4
      vertex -8.03531 19.8881 4
      vertex -8.03531 19.8881 0
    endloop
  endfacet
  facet normal -0.93148 0.363793 0
    outer loop
      vertex -20.1564 7.33633 4
      vertex -19.7933 8.26617 0
      vertex -20.1564 7.33633 0
    endloop
  endfacet
  facet normal -0.93148 0.363793 0
    outer loop
      vertex -20.1564 7.33633 4
      vertex -19.7933 8.26617 4
      vertex -19.7933 8.26617 0
    endloop
  endfacet
  facet normal -0.947397 0.320062 0
    outer loop
      vertex -20.4759 6.3906 4
      vertex -20.1564 7.33633 0
      vertex -20.4759 6.3906 0
    endloop
  endfacet
  facet normal -0.947397 0.320062 0
    outer loop
      vertex -20.4759 6.3906 4
      vertex -20.1564 7.33633 4
      vertex -20.1564 7.33633 0
    endloop
  endfacet
  facet normal -0.998917 0.0465253 0
    outer loop
      vertex -21.4442 0.499119 4
      vertex -21.3977 1.49628 0
      vertex -21.4442 0.499119 0
    endloop
  endfacet
  facet normal -0.998917 0.0465253 0
    outer loop
      vertex -21.4442 0.499119 4
      vertex -21.3977 1.49628 4
      vertex -21.3977 1.49628 0
    endloop
  endfacet
  facet normal 0 0 1
    outer loop
      vertex 0 0 4
      vertex -21.4442 0.499119 4
      vertex -21.4442 -0.499119 4
    endloop
  endfacet
  facet normal 0 0 1
    outer loop
      vertex 0 0 4
      vertex -21.3977 1.49628 4
      vertex -21.4442 0.499119 4
    endloop
  endfacet
  facet normal 0 -0 1
    outer loop
      vertex -21.305 -2.49019 4
      vertex 0 0 4
      vertex -21.3977 -1.49628 4
    endloop
  endfacet
  facet normal 0 -0 1
    outer loop
      vertex -21.166 -3.47872 4
      vertex 0 0 4
      vertex -21.305 -2.49019 4
    endloop
  endfacet
  facet normal 0 -0 1
    outer loop
      vertex -20.9813 -4.45971 4
      vertex 0 0 4
      vertex -21.166 -3.47872 4
    endloop
  endfacet
  facet normal 0 -0 1
    outer loop
      vertex -20.7511 -5.43104 4
      vertex 0 0 4
      vertex -20.9813 -4.45971 4
    endloop
  endfacet
  facet normal 0 -0 1
    outer loop
      vertex -20.4759 -6.3906 4
      vertex 0 0 4
      vertex -20.7511 -5.43104 4
    endloop
  endfacet
  facet normal 0 -0 1
    outer loop
      vertex -20.1564 -7.33633 4
      vertex 0 0 4
      vertex -20.4759 -6.3906 4
    endloop
  endfacet
  facet normal 0 -0 1
    outer loop
      vertex -19.7933 -8.26617 4
      vertex 0 0 4
      vertex -20.1564 -7.33633 4
    endloop
  endfacet
  facet normal 0 -0 1
    outer loop
      vertex -19.3872 -9.17811 4
      vertex 0 0 4
      vertex -19.7933 -8.26617 4
    endloop
  endfacet
  facet normal 0 -0 1
    outer loop
      vertex -18.9392 -10.0702 4
      vertex 0 0 4
      vertex -19.3872 -9.17811 4
    endloop
  endfacet
  facet normal 0 -0 1
    outer loop
      vertex -18.4502 -10.9404 4
      vertex 0 0 4
      vertex -18.9392 -10.0702 4
    endloop
  endfacet
  facet normal 0 -0 1
    outer loop
      vertex -17.9212 -11.787 4
      vertex 0 0 4
      vertex -18.4502 -10.9404 4
    endloop
  endfacet
  facet normal 0 -0 1
    outer loop
      vertex -17.3534 -12.608 4
      vertex 0 0 4
      vertex -17.9212 -11.787 4
    endloop
  endfacet
  facet normal 0 -0 1
    outer loop
      vertex -16.748 -13.4017 4
      vertex 0 0 4
      vertex -17.3534 -12.608 4
    endloop
  endfacet
  facet normal 0 -0 1
    outer loop
      vertex -16.1064 -14.1664 4
      vertex 0 0 4
      vertex -16.748 -13.4017 4
    endloop
  endfacet
  facet normal 0 -0 1
    outer loop
      vertex -15.4298 -14.9004 4
      vertex 0 0 4
      vertex -16.1064 -14.1664 4
    endloop
  endfacet
  facet normal 0 -0 1
    outer loop
      vertex -14.7199 -15.6022 4
      vertex 0 0 4
      vertex -15.4298 -14.9004 4
    endloop
  endfacet
  facet normal 0 -0 1
    outer loop
      vertex -13.978 -16.2701 4
      vertex 0 0 4
      vertex -14.7199 -15.6022 4
    endloop
  endfacet
  facet normal 0 -0 1
    outer loop
      vertex -13.2059 -16.9028 4
      vertex 0 0 4
      vertex -13.978 -16.2701 4
    endloop
  endfacet
  facet normal 0 -0 1
    outer loop
      vertex -12.4052 -17.4989 4
      vertex 0 0 4
      vertex -13.2059 -16.9028 4
    endloop
  endfacet
  facet normal 0 -0 1
    outer loop
      vertex -11.5777 -18.0571 4
      vertex 0 0 4
      vertex -12.4052 -17.4989 4
    endloop
  endfacet
  facet normal 0 -0 1
    outer loop
      vertex -10.725 -18.5762 4
      vertex 0 0 4
      vertex -11.5777 -18.0571 4
    endloop
  endfacet
  facet normal 0 -0 1
    outer loop
      vertex -9.84912 -19.0551 4
      vertex 0 0 4
      vertex -10.725 -18.5762 4
    endloop
  endfacet
  facet normal 0 -0 1
    outer loop
      vertex -8.95191 -19.4927 4
      vertex 0 0 4
      vertex -9.84912 -19.0551 4
    endloop
  endfacet
  facet normal 0 -0 1
    outer loop
      vertex -8.03531 -19.8881 4
      vertex 0 0 4
      vertex -8.95191 -19.4927 4
    endloop
  endfacet
  facet normal 0 -0 1
    outer loop
      vertex -7.10131 -20.2404 4
      vertex 0 0 4
      vertex -8.03531 -19.8881 4
    endloop
  endfacet
  facet normal 0 -0 1
    outer loop
      vertex -6.15193 -20.5489 4
      vertex 0 0 4
      vertex -7.10131 -20.2404 4
    endloop
  endfacet
  facet normal 0 -0 1
    outer loop
      vertex -5.18922 -20.8128 4
      vertex 0 0 4
      vertex -6.15193 -20.5489 4
    endloop
  endfacet
  facet normal 0 -0 1
    outer loop
      vertex -4.21528 -21.0317 4
      vertex 0 0 4
      vertex -5.18922 -20.8128 4
    endloop
  endfacet
  facet normal 0 -0 1
    outer loop
      vertex -3.23221 -21.2051 4
      vertex 0 0 4
      vertex -4.21528 -21.0317 4
    endloop
  endfacet
  facet normal 0 -0 1
    outer loop
      vertex -2.24214 -21.3325 4
      vertex 0 0 4
      vertex -3.23221 -21.2051 4
    endloop
  endfacet
  facet normal 0 -0 1
    outer loop
      vertex -1.24721 -21.4137 4
      vertex 0 0 4
      vertex -2.24214 -21.3325 4
    endloop
  endfacet
  facet normal 0 -0 1
    outer loop
      vertex -0.249576 -21.4485 4
      vertex 0 0 4
      vertex -1.24721 -21.4137 4
    endloop
  endfacet
  facet normal 0 0 1
    outer loop
      vertex 0.748594 -21.4369 4
      vertex 0 0 4
      vertex -0.249576 -21.4485 4
    endloop
  endfacet
  facet normal 0 0 1
    outer loop
      vertex 1.74514 -21.3789 4
      vertex 0 0 4
      vertex 0.748594 -21.4369 4
    endloop
  endfacet
  facet normal 0 0 1
    outer loop
      vertex 2.73791 -21.2745 4
      vertex 0 0 4
      vertex 1.74514 -21.3789 4
    endloop
  endfacet
  facet normal 0 0 1
    outer loop
      vertex 3.72475 -21.1241 4
      vertex 0 0 4
      vertex 2.73791 -21.2745 4
    endloop
  endfacet
  facet normal 0 0 1
    outer loop
      vertex 4.70353 -20.928 4
      vertex 0 0 4
      vertex 3.72475 -21.1241 4
    endloop
  endfacet
  facet normal 0 0 1
    outer loop
      vertex 5.67211 -20.6865 4
      vertex 0 0 4
      vertex 4.70353 -20.928 4
    endloop
  endfacet
  facet normal 0 0 1
    outer loop
      vertex 6.62841 -20.4002 4
      vertex 0 0 4
      vertex 5.67211 -20.6865 4
    endloop
  endfacet
  facet normal 0 0 1
    outer loop
      vertex 7.57036 -20.0697 4
      vertex 0 0 4
      vertex 6.62841 -20.4002 4
    endloop
  endfacet
  facet normal 0 0 1
    outer loop
      vertex 8.49591 -19.6957 4
      vertex 0 0 4
      vertex 7.57036 -20.0697 4
    endloop
  endfacet
  facet normal 0 0 1
    outer loop
      vertex 9.40306 -19.2791 4
      vertex 0 0 4
      vertex 8.49591 -19.6957 4
    endloop
  endfacet
  facet normal 0 0 1
    outer loop
      vertex 10.2898 -18.8208 4
      vertex 0 0 4
      vertex 9.40306 -19.2791 4
    endloop
  endfacet
  facet normal 0 0 1
    outer loop
      vertex 9.9 0 4
      vertex 0 0 4
      vertex 10.2898 -18.8208 4
    endloop
  endfacet
  facet normal 0 0 1
    outer loop
      vertex 9.9 0 4
      vertex 10.2898 -18.8208 4
      vertex 11.1543 -18.3217 4
    endloop
  endfacet
  facet normal 0 0 1
    outer loop
      vertex 9.9 0 4
      vertex 11.1543 -18.3217 4
      vertex 11.9947 -17.7829 4
    endloop
  endfacet
  facet normal 0 0 1
    outer loop
      vertex 9.9 0 4
      vertex 11.9947 -17.7829 4
      vertex 12.8091 -17.2055 4
    endloop
  endfacet
  facet normal 0 0 1
    outer loop
      vertex 9.9 0 4
      vertex 12.8091 -17.2055 4
      vertex 13.5957 -16.591 4
    endloop
  endfacet
  facet normal 0 0 1
    outer loop
      vertex 9.9 0 4
      vertex 13.5957 -16.591 4
      vertex 14.3529 -15.9405 4
    endloop
  endfacet
  facet normal 0 0 1
    outer loop
      vertex 9.9 0 4
      vertex 14.3529 -15.9405 4
      vertex 15.0789 -15.2554 4
    endloop
  endfacet
  facet normal 0 0 1
    outer loop
      vertex 9.9 0 4
      vertex 15.0789 -15.2554 4
      vertex 15.7724 -14.5374 4
    endloop
  endfacet
  facet normal 0 0 1
    outer loop
      vertex 9.9 0 4
      vertex 15.7724 -14.5374 4
      vertex 16.4317 -13.7878 4
    endloop
  endfacet
  facet normal 0 0 1
    outer loop
      vertex 9.9 0 4
      vertex 16.4317 -13.7878 4
      vertex 17.0553 -13.0084 4
    endloop
  endfacet
  facet normal 0 0 1
    outer loop
      vertex 21.0794 3.97029 4
      vertex 9.9 0 4
      vertex 21.2413 2.98526 4
    endloop
  endfacet
  facet normal 0 0 1
    outer loop
      vertex 9.9 0 4
      vertex 17.6421 -12.2008 4
      vertex 18.1906 -11.3668 4
    endloop
  endfacet
  facet normal 0 0 1
    outer loop
      vertex 9.9 0 4
      vertex 18.1906 -11.3668 4
      vertex 18.6998 -10.5081 4
    endloop
  endfacet
  facet normal 0 0 1
    outer loop
      vertex 9.9 0 4
      vertex 18.6998 -10.5081 4
      vertex 19.1684 -9.62674 4
    endloop
  endfacet
  facet normal 0 0 1
    outer loop
      vertex 9.9 0 4
      vertex 19.1684 -9.62674 4
      vertex 19.5956 -8.7245 4
    endloop
  endfacet
  facet normal 0 0 1
    outer loop
      vertex 9.9 0 4
      vertex 19.5956 -8.7245 4
      vertex 19.9802 -7.80336 4
    endloop
  endfacet
  facet normal 0 0 1
    outer loop
      vertex 9.9 0 4
      vertex 19.9802 -7.80336 4
      vertex 20.3217 -6.86533 4
    endloop
  endfacet
  facet normal 0 0 1
    outer loop
      vertex 9.9 0 4
      vertex 20.3217 -6.86533 4
      vertex 20.6191 -5.91242 4
    endloop
  endfacet
  facet normal 0 0 1
    outer loop
      vertex 9.9 0 4
      vertex 20.6191 -5.91242 4
      vertex 20.8718 -4.94671 4
    endloop
  endfacet
  facet normal 0 0 1
    outer loop
      vertex 9.9 0 4
      vertex 20.8718 -4.94671 4
      vertex 21.0794 -3.97029 4
    endloop
  endfacet
  facet normal 0 0 1
    outer loop
      vertex 9.9 0 4
      vertex 21.0794 -3.97029 4
      vertex 21.2413 -2.98526 4
    endloop
  endfacet
  facet normal 0 0 1
    outer loop
      vertex 9.9 0 4
      vertex 21.3571 -1.99377 4
      vertex 21.4268 -0.997968 4
    endloop
  endfacet
  facet normal -0 0 1
    outer loop
      vertex 9.9 0 4
      vertex 21.4268 -0.997968 4
      vertex 21.45 0 4
    endloop
  endfacet
  facet normal 0 0 1
    outer loop
      vertex 9.9 0 4
      vertex 21.45 0 4
      vertex 21.4268 0.997968 4
    endloop
  endfacet
  facet normal 0 0 1
    outer loop
      vertex 9.9 0 4
      vertex 21.4268 0.997968 4
      vertex 21.3571 1.99377 4
    endloop
  endfacet
  facet normal 0 0 1
    outer loop
      vertex 9.9 0 4
      vertex 21.3571 1.99377 4
      vertex 21.2413 2.98526 4
    endloop
  endfacet
  facet normal 0 0 1
    outer loop
      vertex -6.15193 20.5489 4
      vertex -7.10131 20.2404 4
      vertex 0 9.9 4
    endloop
  endfacet
  facet normal 0 0 1
    outer loop
      vertex 9.9 0 4
      vertex 21.0794 3.97029 4
      vertex 20.8718 4.94671 4
    endloop
  endfacet
  facet normal 0 0 1
    outer loop
      vertex 9.9 0 4
      vertex 20.8718 4.94671 4
      vertex 20.6191 5.91242 4
    endloop
  endfacet
  facet normal 0 0 1
    outer loop
      vertex 9.9 0 4
      vertex 20.6191 5.91242 4
      vertex 20.3217 6.86533 4
    endloop
  endfacet
  facet normal 0 0 1
    outer loop
      vertex 9.9 9.9 4
      vertex 20.3217 6.86533 4
      vertex 19.9802 7.80336 4
    endloop
  endfacet
  facet normal 0 0 1
    outer loop
      vertex 9.9 9.9 4
      vertex 19.9802 7.80336 4
      vertex 19.5956 8.7245 4
    endloop
  endfacet
  facet normal 0 0 1
    outer loop
      vertex 19.5956 8.7245 4
      vertex 19.1684 9.62674 4
      vertex 9.9 9.9 4
    endloop
  endfacet
  facet normal 0 0 1
    outer loop
      vertex 9.9 9.9 4
      vertex 18.6998 10.5081 4
      vertex 18.1906 11.3668 4
    endloop
  endfacet
  facet normal 0 0 1
    outer loop
      vertex 9.9 9.9 4
      vertex 18.1906 11.3668 4
      vertex 17.6421 12.2008 4
    endloop
  endfacet
  facet normal 0 0 1
    outer loop
      vertex 9.9 9.9 4
      vertex 17.6421 12.2008 4
      vertex 17.0553 13.0084 4
    endloop
  endfacet
  facet normal 0 0 1
    outer loop
      vertex 9.9 9.9 4
      vertex 17.0553 13.0084 4
      vertex 16.4317 13.7878 4
    endloop
  endfacet
  facet normal 0 0 1
    outer loop
      vertex 9.9 9.9 4
      vertex 16.4317 13.7878 4
      vertex 15.7724 14.5374 4
    endloop
  endfacet
  facet normal 0 0 1
    outer loop
      vertex 9.9 9.9 4
      vertex 15.7724 14.5374 4
      vertex 15.0789 15.2554 4
    endloop
  endfacet
  facet normal 0 0 1
    outer loop
      vertex 9.9 9.9 4
      vertex 15.0789 15.2554 4
      vertex 14.3529 15.9405 4
    endloop
  endfacet
  facet normal 0 0 1
    outer loop
      vertex 9.9 9.9 4
      vertex 14.3529 15.9405 4
      vertex 13.5957 16.591 4
    endloop
  endfacet
  facet normal 0 0 1
    outer loop
      vertex 9.9 9.9 4
      vertex 13.5957 16.591 4
      vertex 12.8091 17.2055 4
    endloop
  endfacet
  facet normal 0 0 1
    outer loop
      vertex 9.9 9.9 4
      vertex 12.8091 17.2055 4
      vertex 11.9947 17.7829 4
    endloop
  endfacet
  facet normal 0 0 1
    outer loop
      vertex 9.9 9.9 4
      vertex 11.9947 17.7829 4
      vertex 11.1543 18.3217 4
    endloop
  endfacet
  facet normal 0 0 1
    outer loop
      vertex 9.9 9.9 4
      vertex 11.1543 18.3217 4
      vertex 10.2898 18.8208 4
    endloop
  endfacet
  facet normal 0 -0 1
    outer loop
      vertex 9.9 9.9 4
      vertex 10.2898 18.8208 4
      vertex 9.40306 19.2791 4
    endloop
  endfacet
  facet normal 0 0 1
    outer loop
      vertex 9.9 9.9 4
      vertex 9.40306 19.2791 4
      vertex 8.49591 19.6957 4
    endloop
  endfacet
  facet normal 0 0 1
    outer loop
      vertex 9.9 9.9 4
      vertex 8.49591 19.6957 4
      vertex 7.57036 20.0697 4
    endloop
  endfacet
  facet normal 0 0 1
    outer loop
      vertex 9.9 9.9 4
      vertex 7.57036 20.0697 4
      vertex 6.62841 20.4002 4
    endloop
  endfacet
  facet normal 0 0 1
    outer loop
      vertex 0 9.9 4
      vertex 6.62841 20.4002 4
      vertex 5.67211 20.6865 4
    endloop
  endfacet
  facet normal 0 0 1
    outer loop
      vertex 0 9.9 4
      vertex 5.67211 20.6865 4
      vertex 4.70353 20.928 4
    endloop
  endfacet
  facet normal 0 0 1
    outer loop
      vertex 0 9.9 4
      vertex 4.70353 20.928 4
      vertex 3.72475 21.1241 4
    endloop
  endfacet
  facet normal 0 0 1
    outer loop
      vertex 0 9.9 4
      vertex 3.72475 21.1241 4
      vertex 2.73791 21.2745 4
    endloop
  endfacet
  facet normal 0 0 1
    outer loop
      vertex 0 9.9 4
      vertex 2.73791 21.2745 4
      vertex 1.74514 21.3789 4
    endloop
  endfacet
  facet normal 0 0 1
    outer loop
      vertex -18.9392 10.0702 4
      vertex 0 0 4
      vertex 0 9.9 4
    endloop
  endfacet
  facet normal -0 0 1
    outer loop
      vertex -1.24721 21.4137 4
      vertex 0 9.9 4
      vertex -0.249576 21.4485 4
    endloop
  endfacet
  facet normal -0 0 1
    outer loop
      vertex -2.24214 21.3325 4
      vertex 0 9.9 4
      vertex -1.24721 21.4137 4
    endloop
  endfacet
  facet normal -0 0 1
    outer loop
      vertex -3.23221 21.2051 4
      vertex 0 9.9 4
      vertex -2.24214 21.3325 4
    endloop
  endfacet
  facet normal -0 0 1
    outer loop
      vertex -4.21528 21.0317 4
      vertex 0 9.9 4
      vertex -3.23221 21.2051 4
    endloop
  endfacet
  facet normal -0 0 1
    outer loop
      vertex -5.18922 20.8128 4
      vertex 0 9.9 4
      vertex -4.21528 21.0317 4
    endloop
  endfacet
  facet normal -0 0 1
    outer loop
      vertex -6.15193 20.5489 4
      vertex 0 9.9 4
      vertex -5.18922 20.8128 4
    endloop
  endfacet
  facet normal 0 0 1
    outer loop
      vertex -21.305 2.49019 4
      vertex -21.3977 1.49628 4
      vertex 0 0 4
    endloop
  endfacet
  facet normal -0 0 1
    outer loop
      vertex -8.03531 19.8881 4
      vertex 0 9.9 4
      vertex -7.10131 20.2404 4
    endloop
  endfacet
  facet normal -0 0 1
    outer loop
      vertex -8.95191 19.4927 4
      vertex 0 9.9 4
      vertex -8.03531 19.8881 4
    endloop
  endfacet
  facet normal -0 0 1
    outer loop
      vertex -9.84912 19.0551 4
      vertex 0 9.9 4
      vertex -8.95191 19.4927 4
    endloop
  endfacet
  facet normal -0 0 1
    outer loop
      vertex -10.725 18.5762 4
      vertex 0 9.9 4
      vertex -9.84912 19.0551 4
    endloop
  endfacet
  facet normal -0 0 1
    outer loop
      vertex -11.5777 18.0571 4
      vertex 0 9.9 4
      vertex -10.725 18.5762 4
    endloop
  endfacet
  facet normal -0 0 1
    outer loop
      vertex -12.4052 17.4989 4
      vertex 0 9.9 4
      vertex -11.5777 18.0571 4
    endloop
  endfacet
  facet normal -0 0 1
    outer loop
      vertex -13.2059 16.9028 4
      vertex 0 9.9 4
      vertex -12.4052 17.4989 4
    endloop
  endfacet
  facet normal -0 0 1
    outer loop
      vertex -13.978 16.2701 4
      vertex 0 9.9 4
      vertex -13.2059 16.9028 4
    endloop
  endfacet
  facet normal -0 0 1
    outer loop
      vertex -14.7199 15.6022 4
      vertex 0 9.9 4
      vertex -13.978 16.2701 4
    endloop
  endfacet
  facet normal -0 0 1
    outer loop
      vertex -15.4298 14.9004 4
      vertex 0 9.9 4
      vertex -14.7199 15.6022 4
    endloop
  endfacet
  facet normal -0 0 1
    outer loop
      vertex -16.1064 14.1664 4
      vertex 0 9.9 4
      vertex -15.4298 14.9004 4
    endloop
  endfacet
  facet normal -0 0 1
    outer loop
      vertex -16.748 13.4017 4
      vertex 0 9.9 4
      vertex -16.1064 14.1664 4
    endloop
  endfacet
  facet normal -0 0 1
    outer loop
      vertex -17.3534 12.608 4
      vertex 0 9.9 4
      vertex -16.748 13.4017 4
    endloop
  endfacet
  facet normal -0 0 1
    outer loop
      vertex -17.9212 11.787 4
      vertex 0 9.9 4
      vertex -17.3534 12.608 4
    endloop
  endfacet
  facet normal -0 0 1
    outer loop
      vertex -18.4502 10.9404 4
      vertex 0 9.9 4
      vertex -17.9212 11.787 4
    endloop
  endfacet
  facet normal -0 0 1
    outer loop
      vertex -18.9392 10.0702 4
      vertex 0 9.9 4
      vertex -18.4502 10.9404 4
    endloop
  endfacet
  facet normal -0 0 1
    outer loop
      vertex -19.3872 9.17811 4
      vertex 0 0 4
      vertex -18.9392 10.0702 4
    endloop
  endfacet
  facet normal -0 0 1
    outer loop
      vertex -19.7933 8.26617 4
      vertex 0 0 4
      vertex -19.3872 9.17811 4
    endloop
  endfacet
  facet normal -0 0 1
    outer loop
      vertex -20.1564 7.33633 4
      vertex 0 0 4
      vertex -19.7933 8.26617 4
    endloop
  endfacet
  facet normal -0 0 1
    outer loop
      vertex -20.4759 6.3906 4
      vertex 0 0 4
      vertex -20.1564 7.33633 4
    endloop
  endfacet
  facet normal -0 0 1
    outer loop
      vertex -20.7511 5.43104 4
      vertex 0 0 4
      vertex -20.4759 6.3906 4
    endloop
  endfacet
  facet normal -0 0 1
    outer loop
      vertex -20.9813 4.45971 4
      vertex 0 0 4
      vertex -20.7511 5.43104 4
    endloop
  endfacet
  facet normal -0 0 1
    outer loop
      vertex -21.166 3.47872 4
      vertex 0 0 4
      vertex -20.9813 4.45971 4
    endloop
  endfacet
  facet normal -0 0 1
    outer loop
      vertex -21.305 2.49019 4
      vertex 0 0 4
      vertex -21.166 3.47872 4
    endloop
  endfacet
  facet normal 0 0 1
    outer loop
      vertex 9.9 0 4
      vertex 17.0553 -13.0084 4
      vertex 17.6421 -12.2008 4
    endloop
  endfacet
  facet normal 0 0 1
    outer loop
      vertex 0 0 4
      vertex -21.4442 -0.499119 4
      vertex -21.3977 -1.49628 4
    endloop
  endfacet
  facet normal 0 0 1
    outer loop
      vertex -0.249576 21.4485 4
      vertex 0 9.9 4
      vertex 0.748594 21.4369 4
    endloop
  endfacet
  facet normal 0 0 1
    outer loop
      vertex 0 9.9 4
      vertex 1.74514 21.3789 4
      vertex 0.748594 21.4369 4
    endloop
  endfacet
  facet normal 0 0 1
    outer loop
      vertex 0 9.9 4
      vertex 9.9 9.9 4
      vertex 6.62841 20.4002 4
    endloop
  endfacet
  facet normal -0 0 1
    outer loop
      vertex 9.9 9.9 4
      vertex 19.1684 9.62674 4
      vertex 18.6998 10.5081 4
    endloop
  endfacet
  facet normal 0 0 1
    outer loop
      vertex 9.9 9.9 4
      vertex 9.9 0 4
      vertex 20.3217 6.86533 4
    endloop
  endfacet
  facet normal 0 0 1
    outer loop
      vertex 9.9 0 4
      vertex 21.2413 -2.98526 4
      vertex 21.3571 -1.99377 4
    endloop
  endfacet
  facet normal -0.998917 -0.0465253 0
    outer loop
      vertex -21.3977 -1.49628 4
      vertex -21.4442 -0.499119 4
      vertex -21.4442 -0.499119 0
    endloop
  endfacet
  facet normal -0.998917 -0.0465253 0
    outer loop
      vertex -21.3977 -1.49628 0
      vertex -21.3977 -1.49628 4
      vertex -21.4442 -0.499119 0
    endloop
  endfacet
  facet normal -0.947397 -0.320062 0
    outer loop
      vertex -20.1564 -7.33633 4
      vertex -20.4759 -6.3906 4
      vertex -20.4759 -6.3906 0
    endloop
  endfacet
  facet normal -0.947397 -0.320062 0
    outer loop
      vertex -20.1564 -7.33633 0
      vertex -20.1564 -7.33633 4
      vertex -20.4759 -6.3906 0
    endloop
  endfacet
  facet normal -0.913545 -0.406737 0
    outer loop
      vertex -19.3872 -9.17811 4
      vertex -19.7933 -8.26617 4
      vertex -19.7933 -8.26617 0
    endloop
  endfacet
  facet normal -0.913545 -0.406737 0
    outer loop
      vertex -19.3872 -9.17811 0
      vertex -19.3872 -9.17811 4
      vertex -19.7933 -8.26617 0
    endloop
  endfacet
  facet normal -0.848048 -0.529919 0
    outer loop
      vertex -17.9212 -11.787 4
      vertex -18.4502 -10.9404 4
      vertex -18.4502 -10.9404 0
    endloop
  endfacet
  facet normal -0.848048 -0.529919 0
    outer loop
      vertex -17.9212 -11.787 0
      vertex -17.9212 -11.787 4
      vertex -18.4502 -10.9404 0
    endloop
  endfacet
  facet normal -0.309017 -0.951057 0
    outer loop
      vertex -6.15193 -20.5489 0
      vertex -7.10131 -20.2404 4
      vertex -7.10131 -20.2404 0
    endloop
  endfacet
  facet normal -0.309017 -0.951057 0
    outer loop
      vertex -6.15193 -20.5489 0
      vertex -6.15193 -20.5489 4
      vertex -7.10131 -20.2404 4
    endloop
  endfacet
  facet normal 0.578332 -0.815801 0
    outer loop
      vertex 12.8091 -17.2055 0
      vertex 11.9947 -17.7829 4
      vertex 11.9947 -17.7829 0
    endloop
  endfacet
  facet normal 0.578332 -0.815801 0
    outer loop
      vertex 12.8091 -17.2055 0
      vertex 12.8091 -17.2055 4
      vertex 11.9947 -17.7829 4
    endloop
  endfacet
  facet normal 0.374607 -0.927184 0
    outer loop
      vertex 8.49591 -19.6957 0
      vertex 7.57036 -20.0697 4
      vertex 7.57036 -20.0697 0
    endloop
  endfacet
  facet normal 0.374607 -0.927184 0
    outer loop
      vertex 8.49591 -19.6957 0
      vertex 8.49591 -19.6957 4
      vertex 7.57036 -20.0697 4
    endloop
  endfacet
  facet normal 0.997564 0.0697565 0
    outer loop
      vertex 21.4268 0.997968 4
      vertex 21.4268 0.997968 0
      vertex 21.3571 1.99377 0
    endloop
  endfacet
  facet normal 0.997564 0.0697565 0
    outer loop
      vertex 21.3571 1.99377 4
      vertex 21.4268 0.997968 4
      vertex 21.3571 1.99377 0
    endloop
  endfacet
  facet normal 0.75088 -0.660439 0
    outer loop
      vertex 16.4317 -13.7878 0
      vertex 15.7724 -14.5374 4
      vertex 15.7724 -14.5374 0
    endloop
  endfacet
  facet normal 0.75088 -0.660439 0
    outer loop
      vertex 16.4317 -13.7878 0
      vertex 16.4317 -13.7878 4
      vertex 15.7724 -14.5374 4
    endloop
  endfacet
  facet normal -0.669131 0.743145 0
    outer loop
      vertex -14.7199 15.6022 4
      vertex -13.978 16.2701 0
      vertex -14.7199 15.6022 0
    endloop
  endfacet
  facet normal -0.669131 0.743145 0
    outer loop
      vertex -14.7199 15.6022 4
      vertex -13.978 16.2701 4
      vertex -13.978 16.2701 0
    endloop
  endfacet
  facet normal -0.633831 0.773472 0
    outer loop
      vertex -13.978 16.2701 4
      vertex -13.2059 16.9028 0
      vertex -13.978 16.2701 0
    endloop
  endfacet
  facet normal -0.633831 0.773472 0
    outer loop
      vertex -13.978 16.2701 4
      vertex -13.2059 16.9028 4
      vertex -13.2059 16.9028 0
    endloop
  endfacet
  facet normal -0.597159 0.802123 0
    outer loop
      vertex -13.2059 16.9028 4
      vertex -12.4052 17.4989 0
      vertex -13.2059 16.9028 0
    endloop
  endfacet
  facet normal -0.597159 0.802123 0
    outer loop
      vertex -13.2059 16.9028 4
      vertex -12.4052 17.4989 4
      vertex -12.4052 17.4989 0
    endloop
  endfacet
  facet normal -0.438371 0.898794 0
    outer loop
      vertex -9.84912 19.0551 4
      vertex -8.95191 19.4927 0
      vertex -9.84912 19.0551 0
    endloop
  endfacet
  facet normal -0.438371 0.898794 0
    outer loop
      vertex -9.84912 19.0551 4
      vertex -8.95191 19.4927 4
      vertex -8.95191 19.4927 0
    endloop
  endfacet
  facet normal -0.352931 0.93565 0
    outer loop
      vertex -8.03531 19.8881 4
      vertex -7.10131 20.2404 0
      vertex -8.03531 19.8881 0
    endloop
  endfacet
  facet normal -0.352931 0.93565 0
    outer loop
      vertex -8.03531 19.8881 4
      vertex -7.10131 20.2404 4
      vertex -7.10131 20.2404 0
    endloop
  endfacet
  facet normal -0.309017 0.951057 0
    outer loop
      vertex -7.10131 20.2404 4
      vertex -6.15193 20.5489 0
      vertex -7.10131 20.2404 0
    endloop
  endfacet
  facet normal -0.309017 0.951057 0
    outer loop
      vertex -7.10131 20.2404 4
      vertex -6.15193 20.5489 4
      vertex -6.15193 20.5489 0
    endloop
  endfacet
  facet normal -0.127642 0.99182 0
    outer loop
      vertex -3.23221 21.2051 4
      vertex -2.24214 21.3325 0
      vertex -3.23221 21.2051 0
    endloop
  endfacet
  facet normal -0.127642 0.99182 0
    outer loop
      vertex -3.23221 21.2051 4
      vertex -2.24214 21.3325 4
      vertex -2.24214 21.3325 0
    endloop
  endfacet
  facet normal -0.702981 0.711209 0
    outer loop
      vertex -15.4298 14.9004 4
      vertex -14.7199 15.6022 0
      vertex -15.4298 14.9004 0
    endloop
  endfacet
  facet normal -0.702981 0.711209 0
    outer loop
      vertex -15.4298 14.9004 4
      vertex -14.7199 15.6022 4
      vertex -14.7199 15.6022 0
    endloop
  endfacet
  facet normal -0.913545 0.406737 0
    outer loop
      vertex -19.7933 8.26617 4
      vertex -19.3872 9.17811 0
      vertex -19.7933 8.26617 0
    endloop
  endfacet
  facet normal -0.913545 0.406737 0
    outer loop
      vertex -19.7933 8.26617 4
      vertex -19.3872 9.17811 4
      vertex -19.3872 9.17811 0
    endloop
  endfacet
  facet normal -0.822475 0.568801 0
    outer loop
      vertex -17.9212 11.787 4
      vertex -17.3534 12.608 0
      vertex -17.9212 11.787 0
    endloop
  endfacet
  facet normal -0.822475 0.568801 0
    outer loop
      vertex -17.9212 11.787 4
      vertex -17.3534 12.608 4
      vertex -17.3534 12.608 0
    endloop
  endfacet
  facet normal -0.893633 0.448799 0
    outer loop
      vertex -19.3872 9.17811 4
      vertex -18.9392 10.0702 0
      vertex -19.3872 9.17811 0
    endloop
  endfacet
  facet normal -0.893633 0.448799 0
    outer loop
      vertex -19.3872 9.17811 4
      vertex -18.9392 10.0702 4
      vertex -18.9392 10.0702 0
    endloop
  endfacet
  facet normal -0.973045 0.230616 0
    outer loop
      vertex -20.9813 4.45971 4
      vertex -20.7511 5.43104 0
      vertex -20.9813 4.45971 0
    endloop
  endfacet
  facet normal -0.973045 0.230616 0
    outer loop
      vertex -20.9813 4.45971 4
      vertex -20.7511 5.43104 4
      vertex -20.7511 5.43104 0
    endloop
  endfacet
  facet normal -0.990268 -0.139173 0
    outer loop
      vertex -21.166 -3.47872 4
      vertex -21.305 -2.49019 4
      vertex -21.305 -2.49019 0
    endloop
  endfacet
  facet normal -0.990268 -0.139173 0
    outer loop
      vertex -21.166 -3.47872 0
      vertex -21.166 -3.47872 4
      vertex -21.305 -2.49019 0
    endloop
  endfacet
  facet normal -0.982721 -0.185095 0
    outer loop
      vertex -20.9813 -4.45971 4
      vertex -21.166 -3.47872 4
      vertex -21.166 -3.47872 0
    endloop
  endfacet
  facet normal -0.982721 -0.185095 0
    outer loop
      vertex -20.9813 -4.45971 0
      vertex -20.9813 -4.45971 4
      vertex -21.166 -3.47872 0
    endloop
  endfacet
  facet normal -0.961262 -0.275637 0
    outer loop
      vertex -20.4759 -6.3906 4
      vertex -20.7511 -5.43104 4
      vertex -20.7511 -5.43104 0
    endloop
  endfacet
  facet normal -0.961262 -0.275637 0
    outer loop
      vertex -20.4759 -6.3906 0
      vertex -20.4759 -6.3906 4
      vertex -20.7511 -5.43104 0
    endloop
  endfacet
  facet normal -0.93148 -0.363793 0
    outer loop
      vertex -19.7933 -8.26617 4
      vertex -20.1564 -7.33633 4
      vertex -20.1564 -7.33633 0
    endloop
  endfacet
  facet normal -0.93148 -0.363793 0
    outer loop
      vertex -19.7933 -8.26617 0
      vertex -19.7933 -8.26617 4
      vertex -20.1564 -7.33633 0
    endloop
  endfacet
  facet normal -0.702981 -0.711209 0
    outer loop
      vertex -14.7199 -15.6022 0
      vertex -15.4298 -14.9004 4
      vertex -15.4298 -14.9004 0
    endloop
  endfacet
  facet normal -0.702981 -0.711209 0
    outer loop
      vertex -14.7199 -15.6022 0
      vertex -14.7199 -15.6022 4
      vertex -15.4298 -14.9004 4
    endloop
  endfacet
  facet normal -0.822475 -0.568801 0
    outer loop
      vertex -17.3534 -12.608 4
      vertex -17.9212 -11.787 4
      vertex -17.9212 -11.787 0
    endloop
  endfacet
  facet normal -0.822475 -0.568801 0
    outer loop
      vertex -17.3534 -12.608 0
      vertex -17.3534 -12.608 4
      vertex -17.9212 -11.787 0
    endloop
  endfacet
  facet normal -0.893633 -0.448799 0
    outer loop
      vertex -18.9392 -10.0702 4
      vertex -19.3872 -9.17811 4
      vertex -19.3872 -9.17811 0
    endloop
  endfacet
  facet normal -0.893633 -0.448799 0
    outer loop
      vertex -18.9392 -10.0702 0
      vertex -18.9392 -10.0702 4
      vertex -19.3872 -9.17811 0
    endloop
  endfacet
  facet normal -0.520016 -0.854156 0
    outer loop
      vertex -10.725 -18.5762 0
      vertex -11.5777 -18.0571 4
      vertex -11.5777 -18.0571 0
    endloop
  endfacet
  facet normal -0.520016 -0.854156 0
    outer loop
      vertex -10.725 -18.5762 0
      vertex -10.725 -18.5762 4
      vertex -11.5777 -18.0571 4
    endloop
  endfacet
  facet normal 0.5 -0.866025 0
    outer loop
      vertex 11.1543 -18.3217 0
      vertex 10.2898 -18.8208 4
      vertex 10.2898 -18.8208 0
    endloop
  endfacet
  facet normal 0.5 -0.866025 0
    outer loop
      vertex 11.1543 -18.3217 0
      vertex 11.1543 -18.3217 4
      vertex 10.2898 -18.8208 4
    endloop
  endfacet
  facet normal 0.651657 -0.758514 0
    outer loop
      vertex 14.3529 -15.9405 0
      vertex 13.5957 -16.591 4
      vertex 13.5957 -16.591 0
    endloop
  endfacet
  facet normal 0.651657 -0.758514 0
    outer loop
      vertex 14.3529 -15.9405 0
      vertex 14.3529 -15.9405 4
      vertex 13.5957 -16.591 4
    endloop
  endfacet
  facet normal 0.999729 -0.023269 0
    outer loop
      vertex 21.45 0 0
      vertex 21.4268 -0.997968 4
      vertex 21.4268 -0.997968 0
    endloop
  endfacet
  facet normal 0.999729 -0.023269 0
    outer loop
      vertex 21.45 0 0
      vertex 21.45 0 4
      vertex 21.4268 -0.997968 4
    endloop
  endfacet
  facet normal 0.882948 -0.469472 0
    outer loop
      vertex 19.1684 -9.62674 0
      vertex 18.6998 -10.5081 4
      vertex 18.6998 -10.5081 0
    endloop
  endfacet
  facet normal 0.882948 -0.469472 0
    outer loop
      vertex 19.1684 -9.62674 0
      vertex 19.1684 -9.62674 4
      vertex 18.6998 -10.5081 4
    endloop
  endfacet
  facet normal -0.559193 0.829038 0
    outer loop
      vertex -12.4052 17.4989 4
      vertex -11.5777 18.0571 0
      vertex -12.4052 17.4989 0
    endloop
  endfacet
  facet normal -0.559193 0.829038 0
    outer loop
      vertex -12.4052 17.4989 4
      vertex -11.5777 18.0571 4
      vertex -11.5777 18.0571 0
    endloop
  endfacet
  facet normal -0.520016 0.854156 0
    outer loop
      vertex -11.5777 18.0571 4
      vertex -10.725 18.5762 0
      vertex -11.5777 18.0571 0
    endloop
  endfacet
  facet normal -0.520016 0.854156 0
    outer loop
      vertex -11.5777 18.0571 4
      vertex -10.725 18.5762 4
      vertex -10.725 18.5762 0
    endloop
  endfacet
  facet normal -0.479713 0.877425 0
    outer loop
      vertex -10.725 18.5762 4
      vertex -9.84912 19.0551 0
      vertex -10.725 18.5762 0
    endloop
  endfacet
  facet normal -0.479713 0.877425 0
    outer loop
      vertex -10.725 18.5762 4
      vertex -9.84912 19.0551 4
      vertex -9.84912 19.0551 0
    endloop
  endfacet
  facet normal -0.173648 0.984808 0
    outer loop
      vertex -4.21528 21.0317 4
      vertex -3.23221 21.2051 0
      vertex -4.21528 21.0317 0
    endloop
  endfacet
  facet normal -0.173648 0.984808 0
    outer loop
      vertex -4.21528 21.0317 4
      vertex -3.23221 21.2051 4
      vertex -3.23221 21.2051 0
    endloop
  endfacet
  facet normal -0.264434 0.964404 0
    outer loop
      vertex -6.15193 20.5489 4
      vertex -5.18922 20.8128 0
      vertex -6.15193 20.5489 0
    endloop
  endfacet
  facet normal -0.264434 0.964404 0
    outer loop
      vertex -6.15193 20.5489 4
      vertex -5.18922 20.8128 4
      vertex -5.18922 20.8128 0
    endloop
  endfacet
  facet normal -0.0813587 0.996685 0
    outer loop
      vertex -2.24214 21.3325 4
      vertex -1.24721 21.4137 0
      vertex -2.24214 21.3325 0
    endloop
  endfacet
  facet normal -0.0813587 0.996685 0
    outer loop
      vertex -2.24214 21.3325 4
      vertex -1.24721 21.4137 4
      vertex -1.24721 21.4137 0
    endloop
  endfacet
  facet normal -0.0348995 0.999391 0
    outer loop
      vertex -1.24721 21.4137 4
      vertex -0.249576 21.4485 0
      vertex -1.24721 21.4137 0
    endloop
  endfacet
  facet normal -0.0348995 0.999391 0
    outer loop
      vertex -1.24721 21.4137 4
      vertex -0.249576 21.4485 4
      vertex -0.249576 21.4485 0
    endloop
  endfacet
  facet normal 0.0116353 0.999932 0
    outer loop
      vertex -0.249576 21.4485 4
      vertex 0.748594 21.4369 0
      vertex -0.249576 21.4485 0
    endloop
  endfacet
  facet normal 0.0116353 0.999932 0
    outer loop
      vertex -0.249576 21.4485 4
      vertex 0.748594 21.4369 4
      vertex 0.748594 21.4369 0
    endloop
  endfacet
  facet normal -0.766044 0.642788 0
    outer loop
      vertex -16.748 13.4017 4
      vertex -16.1064 14.1664 0
      vertex -16.748 13.4017 0
    endloop
  endfacet
  facet normal -0.766044 0.642788 0
    outer loop
      vertex -16.748 13.4017 4
      vertex -16.1064 14.1664 4
      vertex -16.1064 14.1664 0
    endloop
  endfacet
  facet normal -0.871784 0.48989 0
    outer loop
      vertex -18.9392 10.0702 4
      vertex -18.4502 10.9404 0
      vertex -18.9392 10.0702 0
    endloop
  endfacet
  facet normal -0.871784 0.48989 0
    outer loop
      vertex -18.9392 10.0702 4
      vertex -18.4502 10.9404 4
      vertex -18.4502 10.9404 0
    endloop
  endfacet
  facet normal -0.848048 0.529919 0
    outer loop
      vertex -18.4502 10.9404 4
      vertex -17.9212 11.787 0
      vertex -18.4502 10.9404 0
    endloop
  endfacet
  facet normal -0.848048 0.529919 0
    outer loop
      vertex -18.4502 10.9404 4
      vertex -17.9212 11.787 4
      vertex -17.9212 11.787 0
    endloop
  endfacet
  facet normal -0.795121 0.606451 0
    outer loop
      vertex -17.3534 12.608 4
      vertex -16.748 13.4017 0
      vertex -17.3534 12.608 0
    endloop
  endfacet
  facet normal -0.795121 0.606451 0
    outer loop
      vertex -17.3534 12.608 4
      vertex -16.748 13.4017 4
      vertex -16.748 13.4017 0
    endloop
  endfacet
  facet normal -0.961262 0.275637 0
    outer loop
      vertex -20.7511 5.43104 4
      vertex -20.4759 6.3906 0
      vertex -20.7511 5.43104 0
    endloop
  endfacet
  facet normal -0.961262 0.275637 0
    outer loop
      vertex -20.7511 5.43104 4
      vertex -20.4759 6.3906 4
      vertex -20.4759 6.3906 0
    endloop
  endfacet
  facet normal -0.995671 0.0929499 0
    outer loop
      vertex -21.3977 1.49628 4
      vertex -21.305 2.49019 0
      vertex -21.3977 1.49628 0
    endloop
  endfacet
  facet normal -0.995671 0.0929499 0
    outer loop
      vertex -21.3977 1.49628 4
      vertex -21.305 2.49019 4
      vertex -21.305 2.49019 0
    endloop
  endfacet
  facet normal -0.990268 0.139173 0
    outer loop
      vertex -21.305 2.49019 4
      vertex -21.166 3.47872 0
      vertex -21.305 2.49019 0
    endloop
  endfacet
  facet normal -0.990268 0.139173 0
    outer loop
      vertex -21.305 2.49019 4
      vertex -21.166 3.47872 4
      vertex -21.166 3.47872 0
    endloop
  endfacet
  facet normal -0.982721 0.185095 0
    outer loop
      vertex -21.166 3.47872 4
      vertex -20.9813 4.45971 0
      vertex -21.166 3.47872 0
    endloop
  endfacet
  facet normal -0.982721 0.185095 0
    outer loop
      vertex -21.166 3.47872 4
      vertex -20.9813 4.45971 4
      vertex -20.9813 4.45971 0
    endloop
  endfacet
  facet normal -0.995671 -0.0929499 0
    outer loop
      vertex -21.305 -2.49019 4
      vertex -21.3977 -1.49628 4
      vertex -21.3977 -1.49628 0
    endloop
  endfacet
  facet normal -0.995671 -0.0929499 0
    outer loop
      vertex -21.305 -2.49019 0
      vertex -21.305 -2.49019 4
      vertex -21.3977 -1.49628 0
    endloop
  endfacet
  facet normal -0.669131 -0.743145 0
    outer loop
      vertex -13.978 -16.2701 0
      vertex -14.7199 -15.6022 4
      vertex -14.7199 -15.6022 0
    endloop
  endfacet
  facet normal -0.669131 -0.743145 0
    outer loop
      vertex -13.978 -16.2701 0
      vertex -13.978 -16.2701 4
      vertex -14.7199 -15.6022 4
    endloop
  endfacet
  facet normal -0.795121 -0.606451 0
    outer loop
      vertex -16.748 -13.4017 4
      vertex -17.3534 -12.608 4
      vertex -17.3534 -12.608 0
    endloop
  endfacet
  facet normal -0.795121 -0.606451 0
    outer loop
      vertex -16.748 -13.4017 0
      vertex -16.748 -13.4017 4
      vertex -17.3534 -12.608 0
    endloop
  endfacet
  facet normal -0.871784 -0.48989 0
    outer loop
      vertex -18.4502 -10.9404 4
      vertex -18.9392 -10.0702 4
      vertex -18.9392 -10.0702 0
    endloop
  endfacet
  facet normal -0.871784 -0.48989 0
    outer loop
      vertex -18.4502 -10.9404 0
      vertex -18.4502 -10.9404 4
      vertex -18.9392 -10.0702 0
    endloop
  endfacet
  facet normal -0.597159 -0.802123 0
    outer loop
      vertex -12.4052 -17.4989 0
      vertex -13.2059 -16.9028 4
      vertex -13.2059 -16.9028 0
    endloop
  endfacet
  facet normal -0.597159 -0.802123 0
    outer loop
      vertex -12.4052 -17.4989 0
      vertex -12.4052 -17.4989 4
      vertex -13.2059 -16.9028 4
    endloop
  endfacet
  facet normal -0.559193 -0.829038 0
    outer loop
      vertex -11.5777 -18.0571 0
      vertex -12.4052 -17.4989 4
      vertex -12.4052 -17.4989 0
    endloop
  endfacet
  facet normal -0.559193 -0.829038 0
    outer loop
      vertex -11.5777 -18.0571 0
      vertex -11.5777 -18.0571 4
      vertex -12.4052 -17.4989 4
    endloop
  endfacet
  facet normal -0.0348995 -0.999391 0
    outer loop
      vertex -0.249576 -21.4485 0
      vertex -1.24721 -21.4137 4
      vertex -1.24721 -21.4137 0
    endloop
  endfacet
  facet normal -0.0348995 -0.999391 0
    outer loop
      vertex -0.249576 -21.4485 0
      vertex -0.249576 -21.4485 4
      vertex -1.24721 -21.4137 4
    endloop
  endfacet
  facet normal 0.0116353 -0.999932 0
    outer loop
      vertex 0.748594 -21.4369 0
      vertex -0.249576 -21.4485 4
      vertex -0.249576 -21.4485 0
    endloop
  endfacet
  facet normal 0.0116353 -0.999932 0
    outer loop
      vertex 0.748594 -21.4369 0
      vertex 0.748594 -21.4369 4
      vertex -0.249576 -21.4485 4
    endloop
  endfacet
  facet normal -0.173648 -0.984808 0
    outer loop
      vertex -3.23221 -21.2051 0
      vertex -4.21528 -21.0317 4
      vertex -4.21528 -21.0317 0
    endloop
  endfacet
  facet normal -0.173648 -0.984808 0
    outer loop
      vertex -3.23221 -21.2051 0
      vertex -3.23221 -21.2051 4
      vertex -4.21528 -21.0317 4
    endloop
  endfacet
  facet normal -0.127642 -0.99182 0
    outer loop
      vertex -2.24214 -21.3325 0
      vertex -3.23221 -21.2051 4
      vertex -3.23221 -21.2051 0
    endloop
  endfacet
  facet normal -0.127642 -0.99182 0
    outer loop
      vertex -2.24214 -21.3325 0
      vertex -2.24214 -21.3325 4
      vertex -3.23221 -21.2051 4
    endloop
  endfacet
  facet normal 0.241922 -0.970296 0
    outer loop
      vertex 5.67211 -20.6865 0
      vertex 4.70353 -20.928 4
      vertex 4.70353 -20.928 0
    endloop
  endfacet
  facet normal 0.241922 -0.970296 0
    outer loop
      vertex 5.67211 -20.6865 0
      vertex 5.67211 -20.6865 4
      vertex 4.70353 -20.928 4
    endloop
  endfacet
  facet normal 0.686242 -0.727374 0
    outer loop
      vertex 15.0789 -15.2554 0
      vertex 14.3529 -15.9405 4
      vertex 14.3529 -15.9405 0
    endloop
  endfacet
  facet normal 0.686242 -0.727374 0
    outer loop
      vertex 15.0789 -15.2554 0
      vertex 15.0789 -15.2554 4
      vertex 14.3529 -15.9405 4
    endloop
  endfacet
  facet normal 0.150686 -0.988582 0
    outer loop
      vertex 3.72475 -21.1241 0
      vertex 2.73791 -21.2745 4
      vertex 2.73791 -21.2745 0
    endloop
  endfacet
  facet normal 0.150686 -0.988582 0
    outer loop
      vertex 3.72475 -21.1241 0
      vertex 3.72475 -21.1241 4
      vertex 2.73791 -21.2745 4
    endloop
  endfacet
  facet normal 0.0581448 -0.998308 0
    outer loop
      vertex 1.74514 -21.3789 0
      vertex 0.748594 -21.4369 4
      vertex 0.748594 -21.4369 0
    endloop
  endfacet
  facet normal 0.0581448 -0.998308 0
    outer loop
      vertex 1.74514 -21.3789 0
      vertex 1.74514 -21.3789 4
      vertex 0.748594 -21.4369 4
    endloop
  endfacet
  facet normal 0.993238 0.116093 0
    outer loop
      vertex 21.3571 1.99377 4
      vertex 21.3571 1.99377 0
      vertex 21.2413 2.98526 0
    endloop
  endfacet
  facet normal 0.993238 0.116093 0
    outer loop
      vertex 21.2413 2.98526 4
      vertex 21.3571 1.99377 4
      vertex 21.2413 2.98526 0
    endloop
  endfacet
  facet normal 0.986762 -0.162178 0
    outer loop
      vertex 21.2413 -2.98526 0
      vertex 21.0794 -3.97029 4
      vertex 21.0794 -3.97029 0
    endloop
  endfacet
  facet normal 0.986762 -0.162178 0
    outer loop
      vertex 21.2413 -2.98526 0
      vertex 21.2413 -2.98526 4
      vertex 21.0794 -3.97029 4
    endloop
  endfacet
  facet normal 0.780794 -0.624789 0
    outer loop
      vertex 17.0553 -13.0084 0
      vertex 16.4317 -13.7878 4
      vertex 16.4317 -13.7878 0
    endloop
  endfacet
  facet normal 0.780794 -0.624789 0
    outer loop
      vertex 17.0553 -13.0084 0
      vertex 17.0553 -13.0084 4
      vertex 16.4317 -13.7878 4
    endloop
  endfacet
  facet normal 0.809017 -0.587785 0
    outer loop
      vertex 17.6421 -12.2008 0
      vertex 17.0553 -13.0084 4
      vertex 17.0553 -13.0084 0
    endloop
  endfacet
  facet normal 0.809017 -0.587785 0
    outer loop
      vertex 17.6421 -12.2008 0
      vertex 17.6421 -12.2008 4
      vertex 17.0553 -13.0084 4
    endloop
  endfacet
  facet normal 0.835488 -0.549509 0
    outer loop
      vertex 18.1906 -11.3668 0
      vertex 17.6421 -12.2008 4
      vertex 17.6421 -12.2008 0
    endloop
  endfacet
  facet normal 0.835488 -0.549509 0
    outer loop
      vertex 18.1906 -11.3668 0
      vertex 18.1906 -11.3668 4
      vertex 17.6421 -12.2008 4
    endloop
  endfacet
  facet normal 0.196517 0.9805 0
    outer loop
      vertex 3.72475 21.1241 4
      vertex 4.70353 20.928 0
      vertex 3.72475 21.1241 0
    endloop
  endfacet
  facet normal 0.196517 0.9805 0
    outer loop
      vertex 3.72475 21.1241 4
      vertex 4.70353 20.928 4
      vertex 4.70353 20.928 0
    endloop
  endfacet
  facet normal 0.0581448 0.998308 0
    outer loop
      vertex 0.748594 21.4369 4
      vertex 1.74514 21.3789 0
      vertex 0.748594 21.4369 0
    endloop
  endfacet
  facet normal 0.0581448 0.998308 0
    outer loop
      vertex 0.748594 21.4369 4
      vertex 1.74514 21.3789 4
      vertex 1.74514 21.3789 0
    endloop
  endfacet
  facet normal 0.71934 0.694658 0
    outer loop
      vertex 15.7724 14.5374 4
      vertex 15.7724 14.5374 0
      vertex 15.0789 15.2554 0
    endloop
  endfacet
  facet normal 0.71934 0.694658 0
    outer loop
      vertex 15.0789 15.2554 4
      vertex 15.7724 14.5374 4
      vertex 15.0789 15.2554 0
    endloop
  endfacet
  facet normal 0.578332 0.815801 0
    outer loop
      vertex 11.9947 17.7829 4
      vertex 12.8091 17.2055 0
      vertex 11.9947 17.7829 0
    endloop
  endfacet
  facet normal 0.578332 0.815801 0
    outer loop
      vertex 11.9947 17.7829 4
      vertex 12.8091 17.2055 4
      vertex 12.8091 17.2055 0
    endloop
  endfacet
  facet normal 0.5 0.866025 0
    outer loop
      vertex 10.2898 18.8208 4
      vertex 11.1543 18.3217 0
      vertex 10.2898 18.8208 0
    endloop
  endfacet
  facet normal 0.5 0.866025 0
    outer loop
      vertex 10.2898 18.8208 4
      vertex 11.1543 18.3217 4
      vertex 11.1543 18.3217 0
    endloop
  endfacet
  facet normal 0.459166 0.88835 0
    outer loop
      vertex 9.40306 19.2791 4
      vertex 10.2898 18.8208 0
      vertex 9.40306 19.2791 0
    endloop
  endfacet
  facet normal 0.459166 0.88835 0
    outer loop
      vertex 9.40306 19.2791 4
      vertex 10.2898 18.8208 4
      vertex 10.2898 18.8208 0
    endloop
  endfacet
  facet normal -0.219279 0.975662 0
    outer loop
      vertex -5.18922 20.8128 4
      vertex -4.21528 21.0317 0
      vertex -5.18922 20.8128 0
    endloop
  endfacet
  facet normal -0.219279 0.975662 0
    outer loop
      vertex -5.18922 20.8128 4
      vertex -4.21528 21.0317 4
      vertex -4.21528 21.0317 0
    endloop
  endfacet
  facet normal -0.735309 0.677732 0
    outer loop
      vertex -16.1064 14.1664 4
      vertex -15.4298 14.9004 0
      vertex -16.1064 14.1664 0
    endloop
  endfacet
  facet normal -0.735309 0.677732 0
    outer loop
      vertex -16.1064 14.1664 4
      vertex -15.4298 14.9004 4
      vertex -15.4298 14.9004 0
    endloop
  endfacet
  facet normal -0.973045 -0.230616 0
    outer loop
      vertex -20.7511 -5.43104 4
      vertex -20.9813 -4.45971 4
      vertex -20.9813 -4.45971 0
    endloop
  endfacet
  facet normal -0.973045 -0.230616 0
    outer loop
      vertex -20.7511 -5.43104 0
      vertex -20.7511 -5.43104 4
      vertex -20.9813 -4.45971 0
    endloop
  endfacet
  facet normal -0.633831 -0.773472 0
    outer loop
      vertex -13.2059 -16.9028 0
      vertex -13.978 -16.2701 4
      vertex -13.978 -16.2701 0
    endloop
  endfacet
  facet normal -0.633831 -0.773472 0
    outer loop
      vertex -13.2059 -16.9028 0
      vertex -13.2059 -16.9028 4
      vertex -13.978 -16.2701 4
    endloop
  endfacet
  facet normal -0.735309 -0.677732 0
    outer loop
      vertex -15.4298 -14.9004 4
      vertex -16.1064 -14.1664 4
      vertex -16.1064 -14.1664 0
    endloop
  endfacet
  facet normal -0.735309 -0.677732 0
    outer loop
      vertex -15.4298 -14.9004 0
      vertex -15.4298 -14.9004 4
      vertex -16.1064 -14.1664 0
    endloop
  endfacet
  facet normal -0.479713 -0.877425 0
    outer loop
      vertex -9.84912 -19.0551 0
      vertex -10.725 -18.5762 4
      vertex -10.725 -18.5762 0
    endloop
  endfacet
  facet normal -0.479713 -0.877425 0
    outer loop
      vertex -9.84912 -19.0551 0
      vertex -9.84912 -19.0551 4
      vertex -10.725 -18.5762 4
    endloop
  endfacet
  facet normal -0.438371 -0.898794 0
    outer loop
      vertex -8.95191 -19.4927 0
      vertex -9.84912 -19.0551 4
      vertex -9.84912 -19.0551 0
    endloop
  endfacet
  facet normal -0.438371 -0.898794 0
    outer loop
      vertex -8.95191 -19.4927 0
      vertex -8.95191 -19.4927 4
      vertex -9.84912 -19.0551 4
    endloop
  endfacet
  facet normal -0.264434 -0.964404 0
    outer loop
      vertex -5.18922 -20.8128 0
      vertex -6.15193 -20.5489 4
      vertex -6.15193 -20.5489 0
    endloop
  endfacet
  facet normal -0.264434 -0.964404 0
    outer loop
      vertex -5.18922 -20.8128 0
      vertex -5.18922 -20.8128 4
      vertex -6.15193 -20.5489 4
    endloop
  endfacet
  facet normal -0.0813587 -0.996685 0
    outer loop
      vertex -1.24721 -21.4137 0
      vertex -2.24214 -21.3325 4
      vertex -2.24214 -21.3325 0
    endloop
  endfacet
  facet normal -0.0813587 -0.996685 0
    outer loop
      vertex -1.24721 -21.4137 0
      vertex -1.24721 -21.4137 4
      vertex -2.24214 -21.3325 4
    endloop
  endfacet
  facet normal 0.331063 -0.943609 0
    outer loop
      vertex 7.57036 -20.0697 0
      vertex 6.62841 -20.4002 4
      vertex 6.62841 -20.4002 0
    endloop
  endfacet
  facet normal 0.331063 -0.943609 0
    outer loop
      vertex 7.57036 -20.0697 0
      vertex 7.57036 -20.0697 4
      vertex 6.62841 -20.4002 4
    endloop
  endfacet
  facet normal 0.286803 -0.95799 0
    outer loop
      vertex 6.62841 -20.4002 0
      vertex 5.67211 -20.6865 4
      vertex 5.67211 -20.6865 0
    endloop
  endfacet
  facet normal 0.286803 -0.95799 0
    outer loop
      vertex 6.62841 -20.4002 0
      vertex 6.62841 -20.4002 4
      vertex 5.67211 -20.6865 4
    endloop
  endfacet
  facet normal 0.417338 -0.908751 0
    outer loop
      vertex 9.40306 -19.2791 0
      vertex 8.49591 -19.6957 4
      vertex 8.49591 -19.6957 0
    endloop
  endfacet
  facet normal 0.417338 -0.908751 0
    outer loop
      vertex 9.40306 -19.2791 0
      vertex 9.40306 -19.2791 4
      vertex 8.49591 -19.6957 4
    endloop
  endfacet
  facet normal 0.539751 -0.841825 0
    outer loop
      vertex 11.9947 -17.7829 0
      vertex 11.1543 -18.3217 4
      vertex 11.1543 -18.3217 0
    endloop
  endfacet
  facet normal 0.539751 -0.841825 0
    outer loop
      vertex 11.9947 -17.7829 0
      vertex 11.9947 -17.7829 4
      vertex 11.1543 -18.3217 4
    endloop
  endfacet
  facet normal 0.615661 -0.788011 0
    outer loop
      vertex 13.5957 -16.591 0
      vertex 12.8091 -17.2055 4
      vertex 12.8091 -17.2055 0
    endloop
  endfacet
  facet normal 0.615661 -0.788011 0
    outer loop
      vertex 13.5957 -16.591 0
      vertex 13.5957 -16.591 4
      vertex 12.8091 -17.2055 4
    endloop
  endfacet
  facet normal 0.104528 -0.994522 0
    outer loop
      vertex 2.73791 -21.2745 0
      vertex 1.74514 -21.3789 4
      vertex 1.74514 -21.3789 0
    endloop
  endfacet
  facet normal 0.104528 -0.994522 0
    outer loop
      vertex 2.73791 -21.2745 0
      vertex 2.73791 -21.2745 4
      vertex 1.74514 -21.3789 4
    endloop
  endfacet
  facet normal 0.978148 0.207912 0
    outer loop
      vertex 21.0794 3.97029 4
      vertex 21.0794 3.97029 0
      vertex 20.8718 4.94671 0
    endloop
  endfacet
  facet normal 0.978148 0.207912 0
    outer loop
      vertex 20.8718 4.94671 4
      vertex 21.0794 3.97029 4
      vertex 20.8718 4.94671 0
    endloop
  endfacet
  facet normal 0.967415 0.253195 0
    outer loop
      vertex 20.8718 4.94671 4
      vertex 20.8718 4.94671 0
      vertex 20.6191 5.91242 0
    endloop
  endfacet
  facet normal 0.967415 0.253195 0
    outer loop
      vertex 20.6191 5.91242 4
      vertex 20.8718 4.94671 4
      vertex 20.6191 5.91242 0
    endloop
  endfacet
  facet normal 0.939693 0.34202 0
    outer loop
      vertex 20.3217 6.86533 4
      vertex 20.3217 6.86533 0
      vertex 19.9802 7.80336 0
    endloop
  endfacet
  facet normal 0.939693 0.34202 0
    outer loop
      vertex 19.9802 7.80336 4
      vertex 20.3217 6.86533 4
      vertex 19.9802 7.80336 0
    endloop
  endfacet
  facet normal 0.986762 0.162178 0
    outer loop
      vertex 21.2413 2.98526 4
      vertex 21.2413 2.98526 0
      vertex 21.0794 3.97029 0
    endloop
  endfacet
  facet normal 0.986762 0.162178 0
    outer loop
      vertex 21.0794 3.97029 4
      vertex 21.2413 2.98526 4
      vertex 21.0794 3.97029 0
    endloop
  endfacet
  facet normal 0.999729 0.023269 0
    outer loop
      vertex 21.45 0 4
      vertex 21.45 0 0
      vertex 21.4268 0.997968 0
    endloop
  endfacet
  facet normal 0.999729 0.023269 0
    outer loop
      vertex 21.4268 0.997968 4
      vertex 21.45 0 4
      vertex 21.4268 0.997968 0
    endloop
  endfacet
  facet normal 0.997564 -0.0697565 0
    outer loop
      vertex 21.4268 -0.997968 0
      vertex 21.3571 -1.99377 4
      vertex 21.3571 -1.99377 0
    endloop
  endfacet
  facet normal 0.997564 -0.0697565 0
    outer loop
      vertex 21.4268 -0.997968 0
      vertex 21.4268 -0.997968 4
      vertex 21.3571 -1.99377 4
    endloop
  endfacet
  facet normal 0.993238 -0.116093 0
    outer loop
      vertex 21.3571 -1.99377 0
      vertex 21.2413 -2.98526 4
      vertex 21.2413 -2.98526 0
    endloop
  endfacet
  facet normal 0.993238 -0.116093 0
    outer loop
      vertex 21.3571 -1.99377 0
      vertex 21.3571 -1.99377 4
      vertex 21.2413 -2.98526 4
    endloop
  endfacet
  facet normal 0.922762 -0.385369 0
    outer loop
      vertex 19.9802 -7.80336 0
      vertex 19.5956 -8.7245 4
      vertex 19.5956 -8.7245 0
    endloop
  endfacet
  facet normal 0.922762 -0.385369 0
    outer loop
      vertex 19.9802 -7.80336 0
      vertex 19.9802 -7.80336 4
      vertex 19.5956 -8.7245 4
    endloop
  endfacet
  facet normal 0.939693 -0.34202 0
    outer loop
      vertex 20.3217 -6.86533 0
      vertex 19.9802 -7.80336 4
      vertex 19.9802 -7.80336 0
    endloop
  endfacet
  facet normal 0.939693 -0.34202 0
    outer loop
      vertex 20.3217 -6.86533 0
      vertex 20.3217 -6.86533 4
      vertex 19.9802 -7.80336 4
    endloop
  endfacet
  facet normal 0.954588 -0.29793 0
    outer loop
      vertex 20.6191 -5.91242 0
      vertex 20.3217 -6.86533 4
      vertex 20.3217 -6.86533 0
    endloop
  endfacet
  facet normal 0.954588 -0.29793 0
    outer loop
      vertex 20.6191 -5.91242 0
      vertex 20.6191 -5.91242 4
      vertex 20.3217 -6.86533 4
    endloop
  endfacet
  facet normal 0.860149 -0.510043 0
    outer loop
      vertex 18.6998 -10.5081 0
      vertex 18.1906 -11.3668 4
      vertex 18.1906 -11.3668 0
    endloop
  endfacet
  facet normal 0.860149 -0.510043 0
    outer loop
      vertex 18.6998 -10.5081 0
      vertex 18.6998 -10.5081 4
      vertex 18.1906 -11.3668 4
    endloop
  endfacet
  facet normal 0.150686 0.988582 0
    outer loop
      vertex 2.73791 21.2745 4
      vertex 3.72475 21.1241 0
      vertex 2.73791 21.2745 0
    endloop
  endfacet
  facet normal 0.150686 0.988582 0
    outer loop
      vertex 2.73791 21.2745 4
      vertex 3.72475 21.1241 4
      vertex 3.72475 21.1241 0
    endloop
  endfacet
  facet normal 0.882948 0.469472 0
    outer loop
      vertex 19.1684 9.62674 4
      vertex 19.1684 9.62674 0
      vertex 18.6998 10.5081 0
    endloop
  endfacet
  facet normal 0.882948 0.469472 0
    outer loop
      vertex 18.6998 10.5081 4
      vertex 19.1684 9.62674 4
      vertex 18.6998 10.5081 0
    endloop
  endfacet
  facet normal 0.835488 0.549509 0
    outer loop
      vertex 18.1906 11.3668 4
      vertex 18.1906 11.3668 0
      vertex 17.6421 12.2008 0
    endloop
  endfacet
  facet normal 0.835488 0.549509 0
    outer loop
      vertex 17.6421 12.2008 4
      vertex 18.1906 11.3668 4
      vertex 17.6421 12.2008 0
    endloop
  endfacet
  facet normal 0.860149 0.510043 0
    outer loop
      vertex 18.6998 10.5081 4
      vertex 18.6998 10.5081 0
      vertex 18.1906 11.3668 0
    endloop
  endfacet
  facet normal 0.860149 0.510043 0
    outer loop
      vertex 18.1906 11.3668 4
      vertex 18.6998 10.5081 4
      vertex 18.1906 11.3668 0
    endloop
  endfacet
  facet normal 0.903834 0.427884 0
    outer loop
      vertex 19.5956 8.7245 4
      vertex 19.5956 8.7245 0
      vertex 19.1684 9.62674 0
    endloop
  endfacet
  facet normal 0.903834 0.427884 0
    outer loop
      vertex 19.1684 9.62674 4
      vertex 19.5956 8.7245 4
      vertex 19.1684 9.62674 0
    endloop
  endfacet
  facet normal 0.922762 0.385369 0
    outer loop
      vertex 19.9802 7.80336 4
      vertex 19.9802 7.80336 0
      vertex 19.5956 8.7245 0
    endloop
  endfacet
  facet normal 0.922762 0.385369 0
    outer loop
      vertex 19.5956 8.7245 4
      vertex 19.9802 7.80336 4
      vertex 19.5956 8.7245 0
    endloop
  endfacet
  facet normal 0.780794 0.624789 0
    outer loop
      vertex 17.0553 13.0084 4
      vertex 17.0553 13.0084 0
      vertex 16.4317 13.7878 0
    endloop
  endfacet
  facet normal 0.780794 0.624789 0
    outer loop
      vertex 16.4317 13.7878 4
      vertex 17.0553 13.0084 4
      vertex 16.4317 13.7878 0
    endloop
  endfacet
  facet normal 0.809017 0.587785 0
    outer loop
      vertex 17.6421 12.2008 4
      vertex 17.6421 12.2008 0
      vertex 17.0553 13.0084 0
    endloop
  endfacet
  facet normal 0.809017 0.587785 0
    outer loop
      vertex 17.0553 13.0084 4
      vertex 17.6421 12.2008 4
      vertex 17.0553 13.0084 0
    endloop
  endfacet
  facet normal 0.75088 0.660439 0
    outer loop
      vertex 16.4317 13.7878 4
      vertex 16.4317 13.7878 0
      vertex 15.7724 14.5374 0
    endloop
  endfacet
  facet normal 0.75088 0.660439 0
    outer loop
      vertex 15.7724 14.5374 4
      vertex 16.4317 13.7878 4
      vertex 15.7724 14.5374 0
    endloop
  endfacet
  facet normal 0.615661 0.788011 0
    outer loop
      vertex 12.8091 17.2055 4
      vertex 13.5957 16.591 0
      vertex 12.8091 17.2055 0
    endloop
  endfacet
  facet normal 0.615661 0.788011 0
    outer loop
      vertex 12.8091 17.2055 4
      vertex 13.5957 16.591 4
      vertex 13.5957 16.591 0
    endloop
  endfacet
  facet normal 0.651657 0.758514 0
    outer loop
      vertex 13.5957 16.591 4
      vertex 14.3529 15.9405 0
      vertex 13.5957 16.591 0
    endloop
  endfacet
  facet normal 0.651657 0.758514 0
    outer loop
      vertex 13.5957 16.591 4
      vertex 14.3529 15.9405 4
      vertex 14.3529 15.9405 0
    endloop
  endfacet
  facet normal 0.686242 0.727374 0
    outer loop
      vertex 14.3529 15.9405 4
      vertex 15.0789 15.2554 0
      vertex 14.3529 15.9405 0
    endloop
  endfacet
  facet normal 0.686242 0.727374 0
    outer loop
      vertex 14.3529 15.9405 4
      vertex 15.0789 15.2554 4
      vertex 15.0789 15.2554 0
    endloop
  endfacet
  facet normal 0.539751 0.841825 0
    outer loop
      vertex 11.1543 18.3217 4
      vertex 11.9947 17.7829 0
      vertex 11.1543 18.3217 0
    endloop
  endfacet
  facet normal 0.539751 0.841825 0
    outer loop
      vertex 11.1543 18.3217 4
      vertex 11.9947 17.7829 4
      vertex 11.9947 17.7829 0
    endloop
  endfacet
  facet normal 0.286803 0.95799 0
    outer loop
      vertex 5.67211 20.6865 4
      vertex 6.62841 20.4002 0
      vertex 5.67211 20.6865 0
    endloop
  endfacet
  facet normal 0.286803 0.95799 0
    outer loop
      vertex 5.67211 20.6865 4
      vertex 6.62841 20.4002 4
      vertex 6.62841 20.4002 0
    endloop
  endfacet
  facet normal 0.331063 0.943609 0
    outer loop
      vertex 6.62841 20.4002 4
      vertex 7.57036 20.0697 0
      vertex 6.62841 20.4002 0
    endloop
  endfacet
  facet normal 0.331063 0.943609 0
    outer loop
      vertex 6.62841 20.4002 4
      vertex 7.57036 20.0697 4
      vertex 7.57036 20.0697 0
    endloop
  endfacet
  facet normal -0.766044 -0.642788 0
    outer loop
      vertex -16.1064 -14.1664 4
      vertex -16.748 -13.4017 4
      vertex -16.748 -13.4017 0
    endloop
  endfacet
  facet normal -0.766044 -0.642788 0
    outer loop
      vertex -16.1064 -14.1664 0
      vertex -16.1064 -14.1664 4
      vertex -16.748 -13.4017 0
    endloop
  endfacet
  facet normal -0.39608 -0.918216 0
    outer loop
      vertex -8.03531 -19.8881 0
      vertex -8.95191 -19.4927 4
      vertex -8.95191 -19.4927 0
    endloop
  endfacet
  facet normal -0.39608 -0.918216 0
    outer loop
      vertex -8.03531 -19.8881 0
      vertex -8.03531 -19.8881 4
      vertex -8.95191 -19.4927 4
    endloop
  endfacet
  facet normal -0.219279 -0.975662 0
    outer loop
      vertex -4.21528 -21.0317 0
      vertex -5.18922 -20.8128 4
      vertex -5.18922 -20.8128 0
    endloop
  endfacet
  facet normal -0.219279 -0.975662 0
    outer loop
      vertex -4.21528 -21.0317 0
      vertex -4.21528 -21.0317 4
      vertex -5.18922 -20.8128 4
    endloop
  endfacet
  facet normal 0.459166 -0.88835 0
    outer loop
      vertex 10.2898 -18.8208 0
      vertex 9.40306 -19.2791 4
      vertex 9.40306 -19.2791 0
    endloop
  endfacet
  facet normal 0.459166 -0.88835 0
    outer loop
      vertex 10.2898 -18.8208 0
      vertex 10.2898 -18.8208 4
      vertex 9.40306 -19.2791 4
    endloop
  endfacet
  facet normal 0.954588 0.29793 0
    outer loop
      vertex 20.6191 5.91242 4
      vertex 20.6191 5.91242 0
      vertex 20.3217 6.86533 0
    endloop
  endfacet
  facet normal 0.954588 0.29793 0
    outer loop
      vertex 20.3217 6.86533 4
      vertex 20.6191 5.91242 4
      vertex 20.3217 6.86533 0
    endloop
  endfacet
  facet normal 0.903834 -0.427884 0
    outer loop
      vertex 19.5956 -8.7245 0
      vertex 19.1684 -9.62674 4
      vertex 19.1684 -9.62674 0
    endloop
  endfacet
  facet normal 0.903834 -0.427884 0
    outer loop
      vertex 19.5956 -8.7245 0
      vertex 19.5956 -8.7245 4
      vertex 19.1684 -9.62674 4
    endloop
  endfacet
  facet normal 0.978148 -0.207912 0
    outer loop
      vertex 21.0794 -3.97029 0
      vertex 20.8718 -4.94671 4
      vertex 20.8718 -4.94671 0
    endloop
  endfacet
  facet normal 0.978148 -0.207912 0
    outer loop
      vertex 21.0794 -3.97029 0
      vertex 21.0794 -3.97029 4
      vertex 20.8718 -4.94671 4
    endloop
  endfacet
  facet normal 0.241922 0.970296 0
    outer loop
      vertex 4.70353 20.928 4
      vertex 5.67211 20.6865 0
      vertex 4.70353 20.928 0
    endloop
  endfacet
  facet normal 0.241922 0.970296 0
    outer loop
      vertex 4.70353 20.928 4
      vertex 5.67211 20.6865 4
      vertex 5.67211 20.6865 0
    endloop
  endfacet
  facet normal 0.104528 0.994522 0
    outer loop
      vertex 1.74514 21.3789 4
      vertex 2.73791 21.2745 0
      vertex 1.74514 21.3789 0
    endloop
  endfacet
  facet normal 0.104528 0.994522 0
    outer loop
      vertex 1.74514 21.3789 4
      vertex 2.73791 21.2745 4
      vertex 2.73791 21.2745 0
    endloop
  endfacet
  facet normal 0.417338 0.908751 0
    outer loop
      vertex 8.49591 19.6957 4
      vertex 9.40306 19.2791 0
      vertex 8.49591 19.6957 0
    endloop
  endfacet
  facet normal 0.417338 0.908751 0
    outer loop
      vertex 8.49591 19.6957 4
      vertex 9.40306 19.2791 4
      vertex 9.40306 19.2791 0
    endloop
  endfacet
  facet normal 0.967415 -0.253195 0
    outer loop
      vertex 20.8718 -4.94671 0
      vertex 20.6191 -5.91242 4
      vertex 20.6191 -5.91242 0
    endloop
  endfacet
  facet normal 0.967415 -0.253195 0
    outer loop
      vertex 20.8718 -4.94671 0
      vertex 20.8718 -4.94671 4
      vertex 20.6191 -5.91242 4
    endloop
  endfacet
  facet normal 0.374607 0.927184 0
    outer loop
      vertex 7.57036 20.0697 4
      vertex 8.49591 19.6957 0
      vertex 7.57036 20.0697 0
    endloop
  endfacet
  facet normal 0.374607 0.927184 0
    outer loop
      vertex 7.57036 20.0697 4
      vertex 8.49591 19.6957 4
      vertex 8.49591 19.6957 0
    endloop
  endfacet
  facet normal 1 -0 0
    outer loop
      vertex 0 0 4
      vertex 0 9.9 0
      vertex 0 9.9 4
    endloop
  endfacet
  facet normal 1 0 0
    outer loop
      vertex 0 0 4
      vertex 0 0 0
      vertex 0 9.9 0
    endloop
  endfacet
  facet normal 0 1 -0
    outer loop
      vertex 9.9 0 0
      vertex 0 0 4
      vertex 9.9 0 4
    endloop
  endfacet
  facet normal 0 1 0
    outer loop
      vertex 9.9 0 0
      vertex 0 0 0
      vertex 0 0 4
    endloop
  endfacet
  facet normal 0 -1 0
    outer loop
      vertex 0 9.9 4
      vertex 9.9 9.9 0
      vertex 9.9 9.9 4
    endloop
  endfacet
  facet normal 0 -1 0
    outer loop
      vertex 0 9.9 4
      vertex 0 9.9 0
      vertex 9.9 9.9 0
    endloop
  endfacet
  facet normal -1 0 0
    outer loop
      vertex 9.9 9.9 0
      vertex 9.9 0 4
      vertex 9.9 9.9 4
    endloop
  endfacet
  facet normal -1 0 0
    outer loop
      vertex 9.9 9.9 0
      vertex 9.9 0 0
      vertex 9.9 0 4
    endloop
  endfacet
endsolid OpenSCAD_Model
