999
Inkscape export via OpenSCAD DXF Export
  0
SECTION
  2
HEADER
  9
$ACADVER
  1
AC1014
  9
$HANDSEED
  5
FFFF
  9
$MEASUREMENT
 70
     1
  0
ENDSEC
  0
SECTION
  2
TABLES
  0
TABLE
  2
VPORT
  5
8
330
0
100
AcDbSymbolTable
 70
     4
  0
VPORT
  5
2E
330
8
100
AcDbSymbolTableRecord
100
AcDbViewportTableRecord
  2
*ACTIVE
 70
     0
 10
0.0
 20
0.0
 11
1.0
 21
1.0
 12
210.0
 22
148.5
 13
0.0
 23
0.0
 14
10.0
 24
10.0
 15
10.0
 25
10.0
 16
0.0
 26
0.0
 36
1.0
 17
0.0
 27
0.0
 37
0.0
 40
341.0
 41
1.24
 42
50.0
 43
0.0
 44
0.0
 50
0.0
 51
0.0
 71
     0
 72
   100
 73
     1
 74
     3
 75
     0
 76
     0
 77
     0
 78
     0
  0
ENDTAB
  0
TABLE
  2
LTYPE
  5
5
330
0
100
AcDbSymbolTable
 70
     1
  0
LTYPE
  5
14
330
5
100
AcDbSymbolTableRecord
100
AcDbLinetypeTableRecord
  2
BYBLOCK
 70
     0
  3

 72
    65
 73
     0
 40
0.0
  0
LTYPE
  5
15
330
5
100
AcDbSymbolTableRecord
100
AcDbLinetypeTableRecord
  2
BYLAYER
 70
     0
  3

 72
    65
 73
     0
 40
0.0
  0
LTYPE
  5
16
330
5
100
AcDbSymbolTableRecord
100
AcDbLinetypeTableRecord
  2
CONTINUOUS
 70
     0
  3
Solid line
 72
    65
 73
     0
 40
0.0
  0
ENDTAB
  0
TABLE
0
TABLE
2
LAYER
5
2
330
0
100
AcDbSymbolTable
70
1
0
LAYER
5
10
330
2
100
AcDbSymbolTableRecord
100
AcDbLayerTableRecord
2
Layer_1
70
0
62
7
6
CONTINUOUS
0
ENDTAB
0
ENDSEC
  0
ENDTAB
  0
TABLE
  2
STYLE
  5
3
330
0
100
AcDbSymbolTable
 70
     1
  0
STYLE
  5
11
330
3
100
AcDbSymbolTableRecord
100
AcDbTextStyleTableRecord
  2
STANDARD
 70
     0
 40
0.0
 41
1.0
 50
0.0
 71
     0
 42
2.5
  3
txt
  4

  0
ENDTAB
  0
TABLE
  2
VIEW
  5
6
330
0
100
AcDbSymbolTable
 70
     0
  0
ENDTAB
  0
TABLE
  2
UCS
  5
7
330
0
100
AcDbSymbolTable
 70
     0
  0
ENDTAB
  0
TABLE
  2
APPID
  5
9
330
0
100
AcDbSymbolTable
 70
     2
  0
APPID
  5
12
330
9
100
AcDbSymbolTableRecord
100
AcDbRegAppTableRecord
  2
ACAD
 70
     0
  0
ENDTAB
  0
TABLE
  2
DIMSTYLE
  5
A
330
0
100
AcDbSymbolTable
 70
     1
  0
DIMSTYLE
105
27
330
A
100
AcDbSymbolTableRecord
100
AcDbDimStyleTableRecord
  2
ISO-25
 70
     0
  3

  4

  5

  6

  7

 40
1.0
 41
2.5
 42
0.625
 43
3.75
 44
1.25
 45
0.0
 46
0.0
 47
0.0
 48
0.0
140
2.5
141
2.5
142
0.0
143
0.03937007874016
144
1.0
145
0.0
146
1.0
147
0.625
 71
     0
 72
     0
 73
     0
 74
     0
 75
     0
 76
     0
 77
     1
 78
     8
170
     0
171
     3
172
     1
173
     0
174
     0
175
     0
176
     0
177
     0
178
     0
270
     2
271
     2
272
     2
273
     2
274
     3
340
11
275
     0
280
     0
281
     0
282
     0
283
     0
284
     8
285
     0
286
     0
287
     3
288
     0
  0
ENDTAB
  0
TABLE
  2
BLOCK_RECORD
  5
1
330
0
100
AcDbSymbolTable
 70
     1
  0
BLOCK_RECORD
  5
1F
330
1
100
AcDbSymbolTableRecord
100
AcDbBlockTableRecord
  2
*MODEL_SPACE
  0
BLOCK_RECORD
  5
1B
330
1
100
AcDbSymbolTableRecord
100
AcDbBlockTableRecord
  2
*PAPER_SPACE
  0
ENDTAB
  0
ENDSEC
  0
SECTION
  2
BLOCKS
  0
BLOCK
  5
20
330
1F
100
AcDbEntity
  8
0
100
AcDbBlockBegin
  2
*MODEL_SPACE
 70
     0
 10
0.0
 20
0.0
 30
0.0
  3
*MODEL_SPACE
  1

  0
ENDBLK
  5
21
330
1F
100
AcDbEntity
  8
0
100
AcDbBlockEnd
  0
BLOCK
  5
1C
330
1B
100
AcDbEntity
 67
     1
  8
0
100
AcDbBlockBegin
  2
*PAPER_SPACE
  1

  0
ENDBLK
  5
1D
330
1B
100
AcDbEntity
 67
     1
  8
0
100
AcDbBlockEnd
  0
ENDSEC
  0
SECTION
  2
ENTITIES
0
DIMENSION
5
83
100
AcDbEntity
62
256
370
-1
6
ByLayer
1
total_width
3
Standard
70
0
71
5
72
1
41
1.0
100
AcDbAlignedDimension
13
10.180992
23
0.000000
33
0.0
14
121.047087
24
0.000000
34
0.0
50
0.000000
100
AcDbRotatedDimension
0
DIMENSION
5
83
100
AcDbEntity
62
256
370
-1
6
ByLayer
1
total_height
3
Standard
70
0
71
5
72
1
41
1.0
100
AcDbAlignedDimension
13
0.000000
23
7.668494
33
0.0
14
0.000000
24
101.547567
34
0.0
50
90.000000
100
AcDbRotatedDimension
0
DIMENSION
8
Layer_1
5
83
100
AcDbEntity
62
256
370
-1
6
ByLayer
1
Layer_1_width
3
Standard
70
0
71
5
72
1
41
1.0
100
AcDbAlignedDimension
13
10.180992
23
0.000000
33
0.0
14
121.047087
24
0.000000
34
0.0
50
0.000000
100
AcDbRotatedDimension
0
DIMENSION
8
Layer_1
5
83
100
AcDbEntity
62
256
370
-1
6
ByLayer
1
Layer_1_height
3
Standard
70
0
71
5
72
1
41
1.0
100
AcDbAlignedDimension
13
0.000000
23
7.668494
33
0.0
14
0.000000
24
101.547567
34
0.0
50
90.000000
100
AcDbRotatedDimension
0
LWPOLYLINE
100
AcDbPolyline
8
Layer_1
90
100
70
0
10
10.687492
20
8.246976
30
0.0
10
10.331921
20
8.894386
30
0.0
10
10.180992
20
9.713885
30
0.0
10
10.244190
20
10.528793
30
0.0
10
10.530997
20
11.162431
30
0.0
10
11.092765
20
11.520764
30
0.0
10
11.927997
20
11.761275
30
0.0
10
15.668408
20
12.569098
30
0.0
10
17.143149
20
13.125559
30
0.0
10
18.412963
20
13.822293
30
0.0
10
19.521888
20
14.688228
30
0.0
10
20.513963
20
15.752296
30
0.0
10
21.433225
20
17.043426
30
0.0
10
22.323712
20
18.590548
30
0.0
10
40.471578
20
58.045161
30
0.0
10
58.109093
20
96.427383
30
0.0
10
59.262327
20
98.055109
30
0.0
10
60.634674
20
99.411261
30
0.0
10
62.140306
20
100.465570
30
0.0
10
63.693392
20
101.187762
30
0.0
10
65.208103
20
101.547567
30
0.0
10
66.598610
20
101.514713
30
0.0
10
67.779083
20
101.058927
30
0.0
10
68.663693
20
100.149939
30
0.0
10
73.452527
20
87.977784
30
0.0
10
84.164853
20
60.009267
30
0.0
10
99.875044
20
19.239605
30
0.0
10
100.728609
20
17.724778
30
0.0
10
101.674621
20
16.413427
30
0.0
10
102.734038
20
15.291261
30
0.0
10
103.927819
20
14.343988
30
0.0
10
105.276922
20
13.557317
30
0.0
10
106.802306
20
12.916956
30
0.0
10
108.524930
20
12.408615
30
0.0
10
110.465751
20
12.018002
30
0.0
10
112.348427
20
11.603393
30
0.0
10
113.217418
20
11.145297
30
0.0
10
113.503435
20
10.469218
30
0.0
10
113.555851
20
9.653284
30
0.0
10
113.386134
20
8.855267
30
0.0
10
113.005751
20
8.232939
30
0.0
10
112.367223
20
7.911910
30
0.0
10
110.258788
20
7.743753
30
0.0
10
95.507974
20
7.668494
30
0.0
10
80.757159
20
7.743749
30
0.0
10
78.648724
20
7.911906
30
0.0
10
78.010196
20
8.232939
30
0.0
10
77.627376
20
8.858704
30
0.0
10
77.459979
20
9.659090
30
0.0
10
77.518369
20
10.479959
30
0.0
10
77.812908
20
11.167175
30
0.0
10
78.585497
20
11.607249
30
0.0
10
80.282353
20
11.905886
30
0.0
10
81.925509
20
12.142402
30
0.0
10
83.138628
20
12.457264
30
0.0
10
84.067668
20
12.902245
30
0.0
10
84.858586
20
13.529118
30
0.0
10
85.543948
20
14.399467
30
0.0
10
85.941372
20
15.444224
30
0.0
10
86.057733
20
16.694082
30
0.0
10
85.899902
20
18.179737
30
0.0
10
84.563118
20
22.296530
30
0.0
10
81.877003
20
29.759635
30
0.0
10
79.137334
20
37.046496
30
0.0
10
77.639884
20
40.634556
30
0.0
10
76.809527
20
40.814326
30
0.0
10
74.235287
20
40.913072
30
0.0
10
61.240182
20
40.911673
30
0.0
10
47.429090
20
40.753260
30
0.0
10
44.936827
20
40.586186
30
0.0
10
43.743598
20
40.303410
30
0.0
10
42.390286
20
39.711510
30
0.0
10
41.226595
20
39.015300
30
0.0
10
40.264381
20
38.223079
30
0.0
10
39.515497
20
37.343148
30
0.0
10
37.788753
20
33.942793
30
0.0
10
35.031693
20
27.876047
30
0.0
10
32.413022
20
21.785874
30
0.0
10
31.101448
20
18.315243
30
0.0
10
30.928997
20
17.122016
30
0.0
10
30.989826
20
16.153412
30
0.0
10
31.306674
20
15.299714
30
0.0
10
31.902281
20
14.451203
30
0.0
10
33.188439
20
13.354038
30
0.0
10
34.931628
20
12.555337
30
0.0
10
37.095040
20
12.067226
30
0.0
10
39.641865
20
11.901828
30
0.0
10
41.109513
20
11.795911
30
0.0
10
42.062474
20
11.442995
30
0.0
10
42.577769
20
10.790328
30
0.0
10
42.732418
20
9.785161
30
0.0
10
42.581228
20
8.910776
30
0.0
10
42.167974
20
8.232939
30
0.0
10
41.557192
20
7.912515
30
0.0
10
39.638683
20
7.744291
30
0.0
10
26.407270
20
7.668494
30
0.0
10
13.130375
20
7.744170
30
0.0
10
11.257288
20
7.916328
30
0.0
10
10.687492
20
8.246976
30
0.0
10
10.687492
20
8.246976
30
0.0
0
LWPOLYLINE
100
AcDbPolyline
8
Layer_1
90
23
70
0
10
73.776863
20
47.260758
30
0.0
10
74.327600
20
47.736093
30
0.0
10
74.563492
20
48.456040
30
0.0
10
73.875835
20
50.898476
30
0.0
10
71.834280
20
56.750666
30
0.0
10
64.464192
20
76.530716
30
0.0
10
62.321976
20
82.854156
30
0.0
10
61.623134
20
85.410267
30
0.0
10
61.359085
20
86.937218
30
0.0
10
61.285265
20
87.423452
30
0.0
10
61.057672
20
87.226048
30
0.0
10
60.104370
20
84.715161
30
0.0
10
59.480154
20
82.916183
30
0.0
10
58.282558
20
80.056877
30
0.0
10
50.241273
20
62.192103
30
0.0
10
45.574762
20
51.688227
30
0.0
10
43.729983
20
47.163770
30
0.0
10
45.062451
20
47.025197
30
0.0
10
48.415648
20
46.933968
30
0.0
10
58.527566
20
46.884966
30
0.0
10
68.752413
20
46.999613
30
0.0
10
73.776863
20
47.260758
30
0.0
10
73.776863
20
47.260758
30
0.0
0
LWPOLYLINE
100
AcDbPolyline
8
Layer_1
90
8
70
0
10
120.343529
20
46.443855
30
0.0
10
120.781521
20
46.722846
30
0.0
10
121.045565
20
46.763521
30
0.0
10
121.047087
20
46.611929
30
0.0
10
120.633156
20
46.341613
30
0.0
10
120.430153
20
46.335975
30
0.0
10
120.343529
20
46.443855
30
0.0
10
120.343529
20
46.443855
30
0.0
  0
ENDSEC
  0
SECTION
  2
OBJECTS
  0
DICTIONARY
  5
C
330
0
100
AcDbDictionary
  3
ACAD_GROUP
350
D
  3
ACAD_MLINESTYLE
350
17
  0
DICTIONARY
  5
D
330
C
100
AcDbDictionary
  0
DICTIONARY
  5
1A
330
C
100
AcDbDictionary
  0
DICTIONARY
  5
17
330
C
100
AcDbDictionary
  3
STANDARD
350
18
  0
DICTIONARY
  5
19
330
C
100
AcDbDictionary
  0
ENDSEC
  0
EOF
